<svg width="53" height="22" viewBox="0 0 53 22" fill="none" xmlns="http://www.w3.org/2000/svg">
                  <path d="M10.0512 3.12655C9.44356 3.84565 8.47126 4.41283 7.49896 4.3318C7.37742 3.3595 7.85344 2.32643 8.41049 1.68836C9.01818 0.94901 10.0816 0.422348 10.9425 0.381836C11.0438 1.39465 10.6488 2.3872 10.0512 3.12655ZM10.9324 4.52423C9.52458 4.44321 8.31934 5.32436 7.65088 5.32436C6.9723 5.32436 5.94936 4.56475 4.83527 4.585C3.38695 4.60526 2.03991 5.42564 1.30055 6.73216C-0.218663 9.34522 0.905558 13.2142 2.37413 15.3411C3.09323 16.3944 3.95412 17.549 5.08847 17.5085C6.16205 17.468 6.58743 16.8096 7.88383 16.8096C9.19035 16.8096 9.56509 17.5085 10.6994 17.4882C11.8743 17.468 12.6137 16.4349 13.3328 15.3816C14.1531 14.1865 14.4874 13.0217 14.5076 12.961C14.4874 12.9407 12.2389 12.0798 12.2187 9.48701C12.1984 7.31959 13.9911 6.28653 14.0721 6.22576C13.0593 4.7268 11.4793 4.56475 10.9324 4.52423ZM19.0653 1.58708V17.3768H21.5163V11.9785H24.9092C28.0084 11.9785 30.1859 9.85162 30.1859 6.77268C30.1859 3.69373 28.0489 1.58708 24.9902 1.58708H19.0653ZM21.5163 3.65322H24.342C26.4689 3.65322 27.6843 4.78757 27.6843 6.7828C27.6843 8.77804 26.4689 9.92252 24.3319 9.92252H21.5163V3.65322ZM34.6626 17.4983C36.202 17.4983 37.6301 16.7185 38.2783 15.4829H38.3289V17.3768H40.5976V9.51739C40.5976 7.23857 38.7746 5.76999 35.9691 5.76999C33.3662 5.76999 31.4418 7.25882 31.3709 9.3047H33.5788C33.7612 8.33241 34.6626 7.69433 35.8982 7.69433C37.3971 7.69433 38.2378 8.39317 38.2378 9.67944V10.5505L35.1791 10.7328C32.3331 10.9049 30.7936 12.0697 30.7936 14.0953C30.7936 16.1412 32.3837 17.4983 34.6626 17.4983ZM35.3209 15.6246C34.0144 15.6246 33.1839 14.9967 33.1839 14.0345C33.1839 13.042 33.984 12.4647 35.5133 12.3735L38.2378 12.2013V13.0926C38.2378 14.5713 36.9819 15.6246 35.3209 15.6246ZM43.6259 21.6711C46.0162 21.6711 47.1404 20.7596 48.1228 17.9946L52.4273 5.92191H49.9358L47.0492 15.2499H46.9986L44.1121 5.92191H41.5497L45.7022 17.4173L45.4794 18.1162C45.1046 19.3012 44.497 19.7569 43.4132 19.7569C43.2208 19.7569 42.8461 19.7367 42.6941 19.7164V21.6104C42.8359 21.6509 43.4436 21.6711 43.6259 21.6711Z" fill="#eab308"></path>
                </svg>