<svg id="Layer_1" enable-background="new 0 0 66 66" viewBox="0 0 66 66" xmlns="http://www.w3.org/2000/svg"><g><g><path d="m10.42 56.71c-.23 0-.47-.09-.65-.27-.24-.23-.47-.47-.7-.71-9.26-9.83-8.86-25.76.9-35.51l13.45-13.45c.93-.93 2.56-.93 3.49 0l5.45 5.45c.96.96.96 2.53 0 3.49l-13.57 13.56c-2.46 2.46-3.85 5.88-3.82 9.39.03 3.4 1.35 6.54 3.72 8.83.18.17.28.41.28.66s-.1.49-.27.66l-7.62 7.62c-.19.19-.42.28-.66.28zm14.74-48.81c-.16 0-.31.06-.43.18l-13.46 13.46c-9.05 9.05-9.44 23.82-.86 32.92 0 0 0 0 .01.01l6.32-6.32c-2.32-2.56-3.6-5.89-3.63-9.47-.03-4.01 1.56-7.92 4.36-10.72l13.57-13.57c.24-.24.24-.63 0-.86l-5.45-5.45c-.12-.12-.27-.18-.43-.18z"/></g><g><path d="m27.44 63.64c-6.39 0-12.79-2.4-17.68-7.19-.36-.36-.36-.95 0-1.32s.95-.37 1.31-.01c9.12 8.95 23.88 8.88 32.91-.15l13.82-13.82c.12-.12.18-.27.18-.43s-.06-.32-.18-.43l-5.45-5.45c-.24-.24-.63-.24-.87 0l-13.82 13.82c-5.54 5.54-14.64 5.62-20.27.17-.37-.36-.38-.94-.02-1.31s.95-.38 1.31-.02c4.91 4.75 12.83 4.68 17.67-.15l13.82-13.82c.96-.96 2.53-.96 3.49 0l5.45 5.45c.96.96.96 2.53 0 3.49l-13.82 13.81c-4.91 4.91-11.37 7.36-17.85 7.36z"/></g><g><path d="m54.83 46.36c-.24 0-.48-.09-.66-.27l-7.62-7.62c-.17-.17-.27-.41-.27-.66s.1-.48.27-.66l3.63-3.63c.96-.96 2.53-.96 3.49 0l5.45 5.45c.96.96.96 2.53 0 3.49l-3.63 3.63c-.19.18-.43.27-.66.27zm-6.31-8.55 6.31 6.31 2.97-2.97c.24-.24.24-.63 0-.86l-5.45-5.45c-.24-.24-.63-.24-.87 0z"/></g><g><path d="m28.07 19.6c-.24 0-.48-.09-.66-.27l-7.62-7.62c-.17-.17-.27-.41-.27-.66s.1-.48.27-.66l3.63-3.63c.96-.96 2.53-.96 3.49 0l5.45 5.45c.96.96.96 2.53 0 3.49l-3.63 3.63c-.18.18-.42.27-.66.27zm-6.31-8.55 6.31 6.31 2.97-2.97c.24-.24.24-.63 0-.86l-5.45-5.45c-.24-.24-.63-.24-.86 0z"/></g><g><path d="m50.9 27.85c-3.34 0-6.61-1.31-9.03-3.72-3.2-3.2-4.47-7.92-3.31-12.32.58-2.16 1.72-4.13 3.31-5.72 2.4-2.41 5.6-3.73 9.01-3.73 3.41 0 6.61 1.33 9.02 3.74 4.97 4.97 4.97 13.05 0 18.02-1.59 1.59-3.57 2.73-5.73 3.3-1.08.29-2.18.43-3.27.43zm-.02-23.63c-2.91 0-5.64 1.13-7.7 3.19-1.36 1.36-2.33 3.05-2.83 4.88-.99 3.75.09 7.79 2.83 10.52 2.73 2.74 6.76 3.81 10.51 2.81 1.84-.48 3.53-1.46 4.89-2.82 4.24-4.24 4.24-11.15 0-15.4-2.05-2.05-4.79-3.18-7.7-3.18z"/></g><g><path d="m50.9 27.85c-3.34 0-6.61-1.31-9.03-3.72-3.2-3.2-4.47-7.92-3.31-12.32.09-.32.34-.57.66-.66 4.39-1.18 9.11.09 12.33 3.3 3.21 3.21 4.47 7.93 3.29 12.31-.09.32-.34.57-.66.66-1.09.29-2.19.43-3.28.43zm-10.67-15.04c-.76 3.6.34 7.39 2.95 10s6.39 3.71 9.98 2.94c.78-3.59-.32-7.37-2.94-9.99-2.6-2.61-6.39-3.72-9.99-2.95z"/></g><g><path d="m53.36 17.15c-1.16 0-2.32-.44-3.2-1.32-.85-.85-1.32-1.99-1.32-3.2s.47-2.34 1.32-3.2c1.76-1.76 4.63-1.76 6.39 0 .85.85 1.32 1.99 1.32 3.2s-.47 2.34-1.32 3.2c-.87.88-2.03 1.32-3.19 1.32zm0-7.18c-.68 0-1.36.26-1.88.78-.5.5-.78 1.17-.78 1.88s.28 1.38.78 1.88c1.04 1.04 2.73 1.04 3.77 0 .5-.5.78-1.17.78-1.88s-.28-1.38-.78-1.88c-.52-.52-1.21-.78-1.89-.78z"/></g><g><path d="m27.06 43.24c-.66 0-1.29-.34-1.67-.93-.51-.82-.38-1.85.33-2.5l3.27-3.04-4.52-3.73c-.47-.39-.7-.99-.61-1.59.09-.61.48-1.11 1.05-1.35l9.99-4.2c.89-.37 1.85-.09 2.39.69.55.79.48 1.78-.17 2.48l-2.93 3.15 4.63 3.82c.48.4.71 1 .61 1.62s-.51 1.12-1.09 1.34l-10.55 4.1c-.24.09-.49.14-.73.14zm-1.25-11.51 4.47 3.69c.39.32.62.79.63 1.29s-.19.98-.55 1.32l-3.37 3.14c-.03.03-.07.07-.02.16s.1.07.15.05l10.36-4.02-4.57-3.77c-.37-.3-.6-.75-.63-1.23s.14-.95.46-1.3l3.02-3.25c.03-.03.07-.07.01-.16-.06-.08-.11-.06-.15-.04z"/></g></g></svg>