<?xml version="1.0" encoding="utf-8"?>
<!-- Generator: Adobe Illustrator 28.1.0, SVG Export Plug-In . SVG Version: 6.00 Build 0)  -->
<svg version="1.1" id="Layer_1" xmlns="http://www.w3.org/2000/svg" xmlns:xlink="http://www.w3.org/1999/xlink" x="0px" y="0px"
	 viewBox="0 0 1050 1050" style="enable-background:new 0 0 1050 1050;" xml:space="preserve">
<style type="text/css">
	.st0{fill:#E8E5FE;}
	.st1{fill:none;stroke:#8075F2;stroke-width:70;stroke-miterlimit:10;}
	.st2{fill:none;stroke:#8075F2;stroke-width:70;stroke-linecap:round;stroke-linejoin:round;stroke-miterlimit:10;}
</style>
<path class="st0" d="M535,402.7c0,0,152.8,28-9.7,304.4l173.8-142.6l27-98l-26.9-75.7L640.6,360l-84.1,4.8L535,402.7z"/>
<path id="solid" class="st1" d="M525.2,718.4c-0.2,0-0.4,0-0.6,0c-3.3-0.1-6.4-1.4-8.9-3.5c-0.9-0.8-89.1-79.2-136.5-119.8
	c-36-30.9-55.1-71.2-55.1-116.6c0-30.6,8.8-72.9,50.9-100.9c23.5-15.6,54.8-21.3,83.8-15.1c18.6,4,43.9,14.6,66.3,41.8
	c22.4-27.2,47.7-37.9,66.3-41.8c29-6.2,60.3-0.6,83.8,15.1c42,28,50.9,70.3,50.9,100.9c0,45.4-19.1,85.7-55.1,116.6
	c-47.4,40.6-135.6,119-136.5,119.8C532,717.1,528.7,718.4,525.2,718.4z"/>
<path class="st2" d="M1007.8,525c0,266.6-216.1,482.7-482.7,482.7S42.5,791.6,42.5,525S258.6,42.3,525.2,42.3
	c141.9,0,269.5,61.2,357.8,158.7"/>
<polyline class="st2" points="950.9,123.7 927.1,265.3 785.6,241.5 "/>
</svg>
