<svg width="21" height="18" viewBox="0 0 21 18" fill="none" xmlns="http://www.w3.org/2000/svg">
    <path d="M20.9823 7.4985C20.9823 8.8576 20.514 10.1132 19.5773 11.2653C18.6406 12.4174 17.3682 13.3274 15.7602 13.9952C14.1522 14.6631 12.3958 14.997 10.4912 14.997C9.94476 14.997 9.37883 14.9658 8.79338 14.9033C7.24781 16.2702 5.45244 17.2153 3.40729 17.7386C3.0248 17.848 2.57986 17.9339 2.07247 17.9964C1.93977 18.012 1.82073 17.9769 1.71535 17.8909C1.60997 17.805 1.54167 17.6918 1.51045 17.5512V17.5395C1.48703 17.5082 1.48508 17.4613 1.50459 17.3989C1.52411 17.3364 1.53191 17.2973 1.52801 17.2817C1.52411 17.2661 1.54167 17.229 1.5807 17.1704L1.65095 17.0649L1.73292 16.9654L1.82659 16.8599C1.88123 16.7974 2.00222 16.6627 2.18956 16.4557C2.37691 16.2487 2.51156 16.1003 2.59352 16.0105C2.67548 15.9206 2.79648 15.7664 2.9565 15.5477C3.11652 15.329 3.24336 15.1298 3.33704 14.9501C3.43071 14.7705 3.53609 14.5401 3.65318 14.2589C3.77027 13.9777 3.87174 13.6809 3.95761 13.3684C2.73208 12.6732 1.76609 11.814 1.05966 10.7908C0.353218 9.76757 0 8.67014 0 7.4985C0 6.48308 0.277111 5.51257 0.831332 4.58697C1.38555 3.66138 2.13102 2.86271 3.06773 2.19097C4.00444 1.51923 5.12069 0.986131 6.41648 0.591678C7.71226 0.197226 9.07049 0 10.4912 0C12.3958 0 14.1522 0.333917 15.7602 1.00175C17.3682 1.66959 18.6406 2.57956 19.5773 3.73167C20.514 4.88379 20.9823 6.1394 20.9823 7.4985Z" fill="#001F3F"></path>
</svg>
