<svg enable-background="new 0 0 512 512" height="512" viewBox="0 0 512 512" width="512" xmlns="http://www.w3.org/2000/svg"><g id="email"/><g id="charity_1_"/><g id="toy_donation"/><g id="giving"/><g id="charitable_donation"/><g id="contribute"/><g id="gift"/><g id="grant"/><g id="money_bag"/><g id="solidarity"/><g id="charity_voucher"><g><path d="m480.379 0h-448.789c-6.245 0-11.326 5.082-11.326 11.328v250.756c0 6.261 5.081 11.355 11.326 11.355h61.939v48.958c-17.539 21.161-17.429 50.087.72 78.732 0 0 33.024 57.638 33.847 59.172 6.322 11.795 10.498 19.588 10.498 35.759v10.94c0 2.761 2.238 5 5 5s5-2.239 5-5v-10.938c0-18.682-5.156-28.303-11.684-40.483-.822-1.534-2.606-4.9-2.639-4.958l-31.408-54.572c-.036-.063-.074-.125-.113-.186-17.15-27.014-16.358-52.923 2.168-71.113l99-85.188c.049-.042.098-.086.145-.13 21.019-19.562 40.998-17.346 51.475-6.471 9.967 10.346 12.309 29.842-6.103 48.202-.045.044-.088.089-.131.135l-62.531 67.227c-1.881 2.022-1.767 5.186.256 7.066 2.021 1.88 5.185 1.767 7.066-.256l15.386-16.541c19.122 15.419 24.984 37.766 17.913 68.15-.626 2.689 1.047 5.377 3.737 6.003.381.088.762.131 1.137.131 2.272 0 4.329-1.56 4.866-3.868 7.867-33.807.855-59.93-20.828-77.754l40.258-43.281c4.787-4.786 8.427-9.75 11.059-14.736h129.012c2.552 92.5-25.659 144.006-38.09 162.059l-17.607 25.869-.685.961c-8.707 12.228-14.459 20.307-14.268 33.761v10.911c0 2.761 2.238 5 5 5s5-2.239 5-5l-.001-10.98c-.146-10.25 4.316-16.516 12.415-27.89l.717-1.007c.02-.028.04-.057.06-.085l17.621-25.89c12.962-18.825 42.405-72.435 39.841-167.708h73.742c6.263 0 11.357-5.094 11.357-11.355v-250.757c-.001-6.246-5.095-11.328-11.358-11.328zm-376.85 312.753v-39.313h45.687zm378.207-50.669c0 .735-.622 1.355-1.357 1.355h-208.8c3.933-14.553-.125-28.37-8.841-37.417-13.411-13.919-39.592-17.962-65.416 6.021l-36.485 31.396h-129.247c-.719 0-1.326-.621-1.326-1.355v-250.756c0-.732.595-1.328 1.326-1.328h448.789c.735 0 1.357.608 1.357 1.328z"/><path d="m85.124 84.069c-13.918-2.546-15.269-9.141-14.59-15.917 1.234-7.448 9.258-10.956 16.205-10.464 2.583.181 11.021 1.428 11.143 9.886.039 2.737 2.27 4.929 4.998 4.929h.072c2.762-.04 4.968-2.31 4.928-5.071-.147-10.305-7.435-17.926-18.353-19.492v-7.264c0-2.761-2.238-5-5-5s-5 2.239-5 5v7.6c-8.973 1.896-17.282 8.076-18.894 18.46-.014.083-.024.167-.033.25-1.062 10.213 2.038 23.177 22.837 26.94.066.012.133.023.199.032 14.527 2.029 16.391 8.947 16.391 14.732-.024 8.729-8.419 11.821-15.65 11.821-.039 0-.079 0-.116 0-9.148 0-14.996-5.275-15.646-14.12-.202-2.753-2.579-4.819-5.353-4.621-2.754.202-4.822 2.599-4.62 5.353.926 12.616 8.956 21.244 20.885 23.029v7.899c0 2.761 2.238 5 5 5s5-2.239 5-5v-7.91c12.266-1.8 20.468-10.098 20.5-21.438 0-9.634-4.325-21.721-24.903-24.634z"/><path d="m413.542 137.836c-5.661 0-14 1.808-23.093 9.843-9.092-8.035-17.433-9.843-23.096-9.843-11.395 0-21.407 7.225-26.13 18.856-5.302 13.056-4.223 33.564 14.705 51.97l31.035 30.178c.97.944 2.228 1.416 3.485 1.416 1.259 0 2.517-.472 3.487-1.417l31.006-30.176c18.933-18.41 20.013-38.923 14.71-51.982-4.718-11.624-14.723-18.845-26.109-18.845zm4.428 63.66-27.522 26.785-27.548-26.787c-15.368-14.945-16.487-30.999-12.411-41.039 3.161-7.784 9.623-12.619 16.865-12.619 6.38 0 13.112 3.54 19.47 10.236.943.995 2.255 1.558 3.626 1.558s2.683-.563 3.626-1.558c6.357-6.696 13.089-10.236 19.467-10.236 7.232 0 13.688 4.831 16.845 12.607 4.077 10.043 2.957 26.101-12.418 41.053z"/><path d="m149.119 64.572h274.715c2.762 0 5-2.239 5-5s-2.238-5-5-5h-274.715c-2.762 0-5 2.239-5 5s2.238 5 5 5z"/><path d="m149.119 107.864h274.715c2.762 0 5-2.239 5-5s-2.238-5-5-5h-274.715c-2.762 0-5 2.239-5 5s2.238 5 5 5z"/><path d="m299.203 141.155h-150.084c-2.762 0-5 2.239-5 5s2.238 5 5 5h150.084c2.762 0 5-2.239 5-5s-2.238-5-5-5z"/></g></g><g id="handphone"/><g id="humanitarian"/><g id="caring"/><g id="fundraising"/><g id="wheel_chair"/><g id="donation_jar"/><g id="real_estate"/><g id="generosity"/><g id="kidney_donor"/><g id="volunteers"/><g id="empathy"/><g id="organ_donation"/><g id="donate"/><g id="clothes_donation"/><g id="water_donation"/><g id="food_donation"/><g id="charity"/><g id="medicine"/><g id="transfusion"/></svg>