<svg width="103" height="101" viewBox="0 0 103 101" fill="none" xmlns="http://www.w3.org/2000/svg"><path d="M71.3998 77.7153C76.3721 73.6779 79.2107 67.5775 79.0969 61.1735L78.5226 28.8568C78.3182 17.3537 68.8274 8.1944 57.3243 8.39882C45.8213 8.60325 36.662 18.094 36.8664 29.5971L36.9679 35.3104L37.3032 78.1227L53.6301 81.852C59.8743 83.2783 66.4275 81.7527 71.3998 77.7153Z" fill="url(#paint0_linear_47_1771)"></path><path d="M71.3998 77.7153C76.3721 73.6779 79.2107 67.5775 79.0969 61.1735L78.5226 28.8568C78.3182 17.3537 68.8274 8.1944 57.3243 8.39882C45.8213 8.60325 36.662 18.094 36.8664 29.5971L36.9679 35.3104L37.3032 78.1227L53.6301 81.852C59.8743 83.2783 66.4275 81.7527 71.3998 77.7153Z" fill="#91EAF0"></path><path d="M51.353 19.5227C52.6932 22.2366 55.871 21.7274 56.7568 19.5005M59.4811 19.3311C60.8213 22.045 63.9991 21.5358 64.8849 19.309M49.9385 24.7844C55.7485 31.2932 62.2478 29.8758 66.1684 23.0757" stroke="#0C7C84" stroke-width="1.13296" stroke-linecap="round" stroke-linejoin="round"></path><rect x="70.6993" y="19.1041" width="11.6769" height="20.7" rx="3.4811" transform="rotate(16.165 70.6993 19.1041)" fill="#0C7C84"></rect><rect opacity="0.4" x="67.1367" y="46.0889" width="12.2077" height="29.5156" rx="6.10386" transform="rotate(-8.3767 67.1367 46.0889)" fill="#0C7C84"></rect><rect x="69.2581" y="38.6539" width="12.2077" height="29.5156" rx="6.10386" transform="rotate(-8.3767 69.2581 38.6539)" fill="#91EAF0"></rect></svg>