<svg xmlns="http://www.w3.org/2000/svg" data-name="Layer 1" viewBox="0 0 100 125" x="0px" y="0px" fill="#001F3F">
  <path d="M90.44,32.5H83.51L77.73,16.3a5.54,5.54,0,0,0-7.07-3.36L6.38,35.9A5.54,5.54,0,0,0,3,43L17.33,83a5.54,5.54,0,0,0,6.23,3.59,5.2,5.2,0,0,1-3.42-.39,7.14,7.14,0,0,0,3.78,1.16H90.44a7,7,0,0,0,6.85-7.3V39.89C97.29,36,94.38,32.5,90.44,32.5Zm3.15,47.58a3.32,3.32,0,0,1-3.15,3.6H23.92a3.44,3.44,0,0,1-3.3-3.6v-25h73Zm0-34h-73V39.89a3.42,3.42,0,0,1,3.3-3.59H90.44a3.31,3.31,0,0,1,3.15,3.59Z"/>
  <rect x="27.32" y="60.39" width="11.3" height="11.3" rx="0.26" ry="0.26" fill="#001F3F"/>
  <path d="M45.69,64.09H85a.29.29,0,0,0,.27-.31V61.61c0-.18-.12-.52-.27-.52H45.69c-.15,0-.28.34-.28.52v2.17A.29.29,0,0,0,45.69,64.09Z" fill="#001F3F"/>
  <rect x="61.58" y="67.87" width="23.72" height="3.01" rx="0.84" ry="0.84" fill="#001F3F"/>
</svg>
