<svg enable-background="new 0 0 512 512" viewBox="0 0 512 512" xmlns="http://www.w3.org/2000/svg"><g id="_x32_2_Customer_Service"><g><path d="m219.234 285.278c-2.672 0-4.838 2.164-4.838 4.838v7.602c0 2.674 2.166 4.838 4.838 4.838s4.838-2.164 4.838-4.838v-7.602c0-2.675-2.166-4.838-4.838-4.838z"/><path d="m255.991 285.278c-2.672 0-4.838 2.164-4.838 4.838v7.602c0 2.674 2.166 4.838 4.838 4.838s4.838-2.164 4.838-4.838v-7.602c-.001-2.675-2.167-4.838-4.838-4.838z"/><path d="m292.747 285.278c-2.672 0-4.838 2.164-4.838 4.838v7.602c0 2.674 2.166 4.838 4.838 4.838s4.838-2.164 4.838-4.838v-7.602c0-2.675-2.166-4.838-4.838-4.838z"/><path d="m75.054 391.229v5.835c0 13.233 10.765 23.996 23.996 23.996h14.596c19.392 0 35.167-15.775 35.167-35.164v-106.08c0-14.073-8.328-26.207-20.297-31.824 4.792-25.722 12.677-48.772 22.662-68.739 20.175 2.252 39.34-6.348 51.366-21.803 17.516-22.491 36.487-34.879 53.415-34.879 16.963 0 35.958 12.39 53.484 34.888 12.653 16.246 32.315 23.931 51.452 21.766 9.983 19.962 17.819 43.05 22.613 68.754-11.983 5.612-20.322 17.754-20.322 31.837v106.079c0 19.389 15.775 35.164 35.167 35.164h14.596c5.387 0 10.311-1.849 14.32-4.857v23.982c0 11.915-9.692 21.61-21.607 21.61h-65.513c-4.722-18.595-35.545-31.262-52.889-31.262-19.904 0-36.097 16.196-36.097 36.1s16.193 36.1 36.097 36.1c17.345 0 48.168-12.667 52.889-31.262h65.513c17.249 0 31.283-14.036 31.283-31.286v-43.12-5.835c29.954-2.481 53.585-27.684 53.585-58.361 0-26.395-17.476-48.76-41.422-56.086-3.925-52.59-18.211-100.194-40.037-139.026 4.861-17.878.608-35.896-9.683-49.18-39.612-51.143-90.549-79.308-143.428-79.308-52.853 0-103.769 28.167-143.374 79.31-10.262 13.261-14.523 31.218-9.694 49.074-21.831 38.849-36.116 86.518-40.039 139.139-23.926 7.339-41.384 29.695-41.384 56.076 0 30.678 23.631 55.881 53.585 58.362zm212.206 101.827c-14.568 0-26.422-11.854-26.422-26.424s11.854-26.424 26.422-26.424c16.12 0 43.893 13.059 43.893 26.424-.001 13.366-27.773 26.424-43.893 26.424zm-148.123-213.24v106.079c0 14.055-11.436 25.489-25.491 25.489h-14.596c-7.897 0-14.32-6.425-14.32-14.32 0-47.016 0-81.566 0-128.421 0-7.897 6.423-14.32 14.32-14.32h14.596c14.056 0 25.491 11.435 25.491 25.493zm273.813 131.568h-14.596c-14.055 0-25.491-11.433-25.491-25.489v-106.079c0-14.058 11.436-25.493 25.491-25.493h14.596c7.897 0 14.32 6.423 14.32 14.32v128.421c0 7.894-6.423 14.32-14.32 14.32zm67.905-78.517c0 25.342-19.292 46.248-43.909 48.691v-97.41c24.617 2.448 43.909 23.363 43.909 48.719zm-41.598-58.15c-.767-.094-1.536-.175-2.311-.239v-5.835c0-13.231-10.765-23.996-23.996-23.996h-14.596c-1.892 0-3.736.193-5.548.482-4.64-24.381-12.073-47.298-22.035-67.928 4.645-1.399 9.184-3.383 13.488-6.05 8.62-5.35 15.555-12.886 20.221-21.693 18.614 35.588 30.933 78.297 34.777 125.259zm-319.02-180.214c37.73-48.726 85.931-75.559 135.723-75.559 49.817 0 98.04 26.833 135.78 75.556 16.835 21.729 11.114 53.725-12.581 68.427-20.45 12.683-47.136 7.767-62.08-11.412 0-.002 0-.002 0-.002-19.401-24.903-41.108-38.618-61.118-38.618-19.978 0-41.658 13.713-61.05 38.611-14.932 19.193-41.616 24.102-62.068 11.426-23.6-14.639-29.514-46.579-12.606-68.429zm-12.707 54.991c4.671 8.796 11.603 16.32 20.214 21.661 4.315 2.675 8.863 4.676 13.521 6.076-9.954 20.627-17.397 43.521-22.029 67.904-1.825-.294-3.683-.488-5.59-.488h-14.596c-13.231 0-23.996 10.765-23.996 23.996v5.835c-.746.062-1.487.136-2.225.226 3.846-46.93 16.121-89.635 34.701-125.21zm-32.476 134.655v97.41c-24.617-2.443-43.909-23.348-43.909-48.691 0-25.357 19.292-46.272 43.909-48.719z"/><path d="m178.835 373.13c1.691 1.691 3.917 2.584 6.189 2.584 1.198 0 2.407-.246 3.56-.756l32.131-14.159c54.728 22.781 118.76-12.767 118.76-66.88 0-40.692-37.451-73.797-83.484-73.797-68.564 0-107.218 69.056-67.499 117.196l-11.483 26.065c-1.472 3.34-.756 7.162 1.826 9.747zm19.741-34.707c.768-1.743.442-3.77-.832-5.188-37.305-41.46-3.502-103.438 58.246-103.438 40.699 0 73.808 28.765 73.808 64.121 0 48.527-59.448 78.511-107.13 57.185-1.245-.553-2.672-.562-3.926-.009l-31.949 14.079z"/></g></g><g id="Layer_1"/></svg>