<svg width="21" height="18" viewBox="0 0 24 18" fill="none" xmlns="http://www.w3.org/2000/svg">
    <path d="M11.6058 0C8.34945 0 5.74195 1.47857 3.84375 3.23839C1.95764 4.98214 0.696207 7.07143 0.0997461 8.5058C-0.0332487 8.82321 -0.0332487 9.17679 0.0997461 9.4942C0.696207 10.9286 1.95764 13.0179 3.84375 14.7616C5.74195 16.5214 8.34945 18 11.6058 18C14.8622 18 17.4697 16.5214 19.3679 14.7616C21.254 13.0138 22.5154 10.9286 23.1159 9.4942C23.2489 9.17679 23.2489 8.82321 23.1159 8.5058C22.5154 7.07143 21.254 4.98214 19.3679 3.23839C17.4697 1.47857 14.8622 0 11.6058 0ZM5.8024 9C5.8024 7.46553 6.41383 5.99391 7.50218 4.90888C8.59053 3.82385 10.0666 3.21429 11.6058 3.21429C13.145 3.21429 14.6211 3.82385 15.7094 4.90888C16.7978 5.99391 17.4092 7.46553 17.4092 9C17.4092 10.5345 16.7978 12.0061 15.7094 13.0911C14.6211 14.1761 13.145 14.7857 11.6058 14.7857C10.0666 14.7857 8.59053 14.1761 7.50218 13.0911C6.41383 12.0061 5.8024 10.5345 5.8024 9ZM11.6058 6.42857C11.6058 7.84687 10.4492 9 9.02652 9C8.74038 9 8.46633 8.95179 8.2084 8.86741C7.98674 8.79509 7.72881 8.9317 7.73687 9.16473C7.74896 9.44196 7.78926 9.7192 7.86583 9.99643C8.41796 12.0536 10.5418 13.275 12.6053 12.7246C14.6687 12.1741 15.8939 10.0567 15.3418 7.99955C14.8944 6.33214 13.4153 5.21116 11.771 5.14286C11.5373 5.13482 11.4003 5.38795 11.4728 5.61295C11.5574 5.87009 11.6058 6.1433 11.6058 6.42857Z" fill="#001F3F"></path>
</svg>
