<svg id="Layer_1" enable-background="new 0 0 66 66" viewBox="0 0 66 66" xmlns="http://www.w3.org/2000/svg"><path d="m63.76 41.1-4.22-4.64c-.5-.55-1.2-.88-1.94-.92-.74-.03-1.47.22-2.02.73l-.83.76-3-2.74c.43-1.1.77-2.2 1.04-3.17.4-1.44.12-2.98-.77-4.21l-.85-1.18c.83-2.08.34-4.48-1.25-6.03.63-1.12.86-2.43.62-3.73-.24-1.32-.94-2.47-1.97-3.29.44-.92.57-1.96.3-2.95-.35-1.31-1.23-2.31-2.63-2.96-.75-.35-1.6-.46-2.46-.33-2.14.33-4.61 1.12-7.33 2.32l-2.23-2.09c-1.74-1.64-4.41-1.82-6.35-.42l-5.77 4.14c-1.25.89-1.74 2.49-1.18 3.8.17.38.4.71.7 1-.12.48-.15.96-.09 1.44-1.05.02-2.08.44-2.82 1.29-.67.77-.99 1.75-.92 2.76.01.07.03.14.04.22-.07 0-.15-.01-.22-.01-1.01.07-1.94.53-2.61 1.3-.74.85-1.02 1.94-.88 2.98-.07 0-.15-.01-.22-.01-1.01.07-1.94.53-2.6 1.3-.67.77-.99 1.75-.92 2.76s.53 1.94 1.3 2.6l1.09.94-2.19 3.37-.13-.12c-1.15-1.04-2.93-.96-3.97.19l-4.22 4.64c-.51.55-.76 1.27-.73 2.02s.36 1.44.91 1.94l16.38 14.91c.54.49 1.21.73 1.89.73.76 0 1.52-.31 2.08-.92l4.21-4.62c1.04-1.14.96-2.92-.19-3.97l-.39-.36 3.85-3.7 7.38 2.49c.75.25 1.43.69 1.97 1.27l.07.08-.5.46c-1.15 1.05-1.23 2.83-.19 3.97l4.23 4.64c.55.61 1.31.92 2.08.92.67 0 1.35-.24 1.89-.73l16.38-14.91c1.14-1.04 1.22-2.82.18-3.96zm-40.56-29.17 5.78-4.14c.54-.39 1.18-.58 1.81-.58.77 0 1.53.28 2.12.84l1.66 1.56c-3.15 1.54-6.06 3.33-8.07 4.64l-.21.07c-.93.32-1.9.3-2.68-.05-.48-.22-.78-.49-.94-.84-.22-.49.01-1.13.53-1.5zm.21 4.3c.49.15 1.01.23 1.54.23.65 0 1.31-.11 1.96-.34l.33-.11c.07-.03.14-.06.21-.1.08-.05.18-.11.26-.17l.9.78c.79.68.87 1.88.19 2.67-.6.69-1.59.84-2.35.41l-2.37-2.06c-.04-.04-.09-.06-.13-.09-.34-.33-.52-.76-.54-1.22zm-3.72 4.32c-.04-.51.13-.99.46-1.38.37-.43.9-.65 1.43-.65.36 0 .73.11 1.05.32.06.06.11.12.17.17l2.08 1.8c.12.1.24.18.36.26l1.96 1.7c.79.69.87 1.88.19 2.67-.33.38-.79.61-1.3.65-.37.03-.74-.06-1.06-.24l-4.66-4.05c-.05-.04-.11-.08-.16-.12-.31-.29-.49-.69-.52-1.13zm-3.26 2.9c.37-.43.9-.65 1.43-.65.37 0 .75.12 1.07.34.05.05.09.11.14.15l4.38 3.8c.11.1.24.18.36.26l.81.71c.38.33.61.79.65 1.3s-.13.99-.46 1.38c-.69.79-1.88.87-2.67.19l-1.99-1.73c-.09-.1-.18-.21-.28-.3l-3.23-2.8c-.05-.05-.11-.08-.17-.12-.63-.71-.67-1.8-.04-2.53zm-3.7 4.27c.33-.38.79-.61 1.3-.65h.14c.38 0 .75.12 1.07.34.05.05.09.11.15.15l3.52 3.05c.22.29.36.64.38 1.02.04.51-.13.99-.46 1.38-.69.79-1.88.87-2.67.19l-3.23-2.8c-.38-.33-.61-.79-.65-1.3-.05-.51.12-1 .45-1.38zm12.86 25.9-4.22 4.64c-.33.37-.9.39-1.27.06l-16.39-14.91c-.18-.16-.28-.38-.29-.62s.07-.47.23-.65l4.22-4.64c.18-.19.42-.29.67-.29.22 0 .43.08.6.23l16.38 14.91c.37.33.4.9.07 1.27zm-13.6-16.17 2.22-3.41.68.59c.72.62 1.61.93 2.49.93 1.06 0 2.12-.44 2.87-1.31.44-.51.72-1.11.84-1.75.66.5 1.45.79 2.29.79.09 0 .18 0 .27-.01 1.01-.07 1.94-.53 2.6-1.3.67-.77.99-1.75.92-2.76-.03-.46-.16-.9-.34-1.31.77-.18 1.46-.59 1.98-1.2.67-.77.99-1.75.92-2.76-.07-.93-.47-1.78-1.13-2.43.61-.21 1.17-.56 1.62-1.08 1.37-1.58 1.2-3.99-.38-5.37l-.47-.41c2.05-1.27 4.59-2.72 7.25-3.93 2.8-1.28 5.3-2.1 7.42-2.42.49-.07.97-.01 1.38.18.88.41 1.39.96 1.59 1.72.3 1.09-.29 2.32-1.39 2.92l-4.37 2.39c-.46.25-.63.83-.38 1.3.17.32.5.5.84.5.15 0 .31-.04.46-.12l4.37-2.39c.32-.17.6-.39.86-.62.64.52 1.09 1.26 1.25 2.11.2 1.12-.11 2.25-.86 3.1l-3.02 3.45c-.35.4-.31 1 .09 1.35.18.16.41.24.63.24.26 0 .53-.11.72-.33l2.52-2.88c1.07 1.21 1.24 3.09.29 4.49l-2.57 3.81c-.29.44-.18 1.03.26 1.32.16.11.35.16.53.16.31 0 .61-.15.79-.42l2.07-3.08.36.49c.55.76.72 1.7.48 2.59-.26.94-.68 2.28-1.23 3.61-.52 1.26-1.17 2.5-1.93 3.4-.74.57-7.87 5.88-17.88 7.22-.1.01-.2.04-.29.09-.02.01-.03.02-.04.03-.07.04-.14.08-.2.14l-4.37 4.21zm29.02 11.89c-.76-.81-1.71-1.42-2.76-1.77l-4.46-1.51c9.04-2.1 14.96-6.77 15.23-7 .04-.03.08-.07.12-.11.68-.78 1.27-1.76 1.79-2.81l2.38 2.18-12.21 11.11zm21.28-5.69-16.38 14.91c-.36.33-.93.31-1.27-.06l-4.23-4.64c-.33-.37-.31-.93.06-1.27l16.38-14.91c.17-.15.38-.23.6-.23h.04c.24.01.46.12.62.29l4.23 4.64c.34.37.32.94-.05 1.27z"/></svg>