<?xml version="1.0"?>
<svg xmlns="http://www.w3.org/2000/svg" id="Layer_1" data-name="Layer 1" viewBox="0 0 64 64"><path d="M38,56H7.7A3.709,3.709,0,0,1,4,52.3C4,40,14.317,30,27,30a23.229,23.229,0,0,1,17.762,8.131,1,1,0,0,1-1.524,1.3A21.23,21.23,0,0,0,27,32C15.421,32,6,41.1,6,52.3A1.707,1.707,0,0,0,7.7,54H38a1,1,0,0,1,0,2Z"/><path d="M27,28A12,12,0,1,1,39,16,12.013,12.013,0,0,1,27,28ZM27,6A10,10,0,1,0,37,16,10.011,10.011,0,0,0,27,6Z"/><path d="M56.416,60a.989.989,0,0,1-.452-.108L49,56.363l-6.964,3.529A1,1,0,0,1,40.6,58.825L41.921,51.4l-5.606-5.266a1,1,0,0,1,.546-1.719l7.778-1.089,3.471-6.78a1.041,1.041,0,0,1,1.78,0l3.471,6.78,7.778,1.089a1,1,0,0,1,.546,1.719L56.079,51.4,57.4,58.825A1,1,0,0,1,56.416,60ZM49,54.242a.987.987,0,0,1,.452.109L55.08,57.2l-1.064-5.987a1,1,0,0,1,.3-.9L58.794,46.1l-6.225-.872a1,1,0,0,1-.751-.534L49,39.194l-2.818,5.5a1,1,0,0,1-.751.534l-6.225.872,4.479,4.208a1,1,0,0,1,.3.9L42.92,57.2l5.628-2.851A.987.987,0,0,1,49,54.242Z"/></svg>
