<svg enable-background="new 0 0 512 512" viewBox="0 0 512 512" xmlns="http://www.w3.org/2000/svg"><g id="_x30_4_fast_time"><g><path d="m440.791 164.646 13.543-23.875c3.837 1.923 5.711 3.976 9.558 3.976 3.387 0 6.685-1.772 8.476-4.925l3.004-5.296c2.642-4.665 1-10.61-3.663-13.253l-37.524-21.285c-4.66-2.642-10.604-1.002-13.255 3.66l-3.004 5.296c-2.642 4.664-1 10.608 3.66 13.253l4.57 2.592-11.895 20.971c-18.221-10.255-38.725-16.895-60.557-18.932v-21.882h5.493c5.363 0 9.725-4.363 9.725-9.724v-6.089c0-5.361-4.363-9.722-9.725-9.722h-43.139c-5.363 0-9.725 4.361-9.725 9.722v6.089c0 5.361 4.363 9.724 9.725 9.724h5.253v22.289c-76.008 8.968-135.173 73.751-135.173 152.13 0 84.489 68.737 153.226 153.228 153.226s153.228-68.737 153.228-153.226c0-45.622-20.064-86.624-51.803-114.719zm-17.448-52.633 3.001-5.294c.949-1.67 3.077-2.273 4.77-1.318l37.524 21.287c1.678.95 2.268 3.089 1.316 4.767l-3.001 5.294c-.955 1.681-3.095 2.26-4.77 1.318l-37.527-21.285c-1.675-.952-2.264-3.091-1.313-4.769zm8.227 15.848 17.347 9.839-12.95 22.83c-5.177-4.216-10.632-8.1-16.335-11.622zm-119.012-32.64v-6.089c0-1.927 1.569-3.496 3.499-3.496h43.139c1.93 0 3.499 1.569 3.499 3.496v6.089c0 1.929-1.569 3.498-3.499 3.498-14.992 0-28.19 0-43.139 0-1.93 0-3.499-1.569-3.499-3.498zm14.979 9.724h19.94v21.407c-7.167-.376-12.916-.256-19.94.284zm11.829 321.419c-81.056 0-147.002-65.945-147.002-147 0-81.059 65.946-147.003 147.002-147.003s147.002 65.945 147.002 147.003c0 81.056-65.946 147-147.002 147z"/><path d="m339.366 154.257c-68.983 0-125.104 56.122-125.104 125.105s56.121 125.105 125.104 125.105 125.107-56.122 125.107-125.105-56.124-125.105-125.107-125.105zm0 243.985c-65.548 0-118.878-53.33-118.878-118.879s53.33-118.879 118.878-118.879c65.551 0 118.881 53.33 118.881 118.879s-53.33 118.879-118.881 118.879z"/><path d="m339.366 182.438c1.721 0 3.113-1.394 3.113-3.113v-10.657c0-1.719-1.392-3.113-3.113-3.113s-3.113 1.394-3.113 3.113v10.657c0 1.719 1.392 3.113 3.113 3.113z"/><path d="m339.366 376.927c-1.721 0-3.113 1.394-3.113 3.113v10.657c0 1.719 1.392 3.113 3.113 3.113s3.113-1.394 3.113-3.113v-10.657c0-1.719-1.392-3.113-3.113-3.113z"/><path d="m439.723 282.795h10.659c1.721 0 3.113-1.394 3.113-3.113s-1.392-3.113-3.113-3.113h-10.659c-1.721 0-3.113 1.394-3.113 3.113s1.393 3.113 3.113 3.113z"/><path d="m239.009 276.569h-10.659c-1.721 0-3.113 1.394-3.113 3.113s1.392 3.113 3.113 3.113h10.659c1.721 0 3.113-1.394 3.113-3.113s-1.392-3.113-3.113-3.113z"/><path d="m342.479 262.487v-62.836c0-1.719-1.392-3.113-3.113-3.113s-3.113 1.394-3.113 3.113v62.141c-8.235.707-14.742 7.557-14.742 15.971 0 5.535 2.808 10.423 7.072 13.324l-21.771 34.906c-.909 1.459-.465 3.379.994 4.29 1.466.911 3.383.46 4.29-.994l22.292-35.743c10.033 2.051 19.318-5.667 19.318-15.783 0-7.176-4.741-13.199-11.227-15.276zm-4.858 25.16c-5.451 0-9.883-4.434-9.883-9.883s4.432-9.883 9.883-9.883c5.436 0 9.859 4.434 9.859 9.883s-4.423 9.883-9.859 9.883z"/><path d="m69.148 171.782h102.601c9.099 0 16.502-7.403 16.502-16.502 0-9.098-7.403-16.5-16.502-16.5h-102.601c-9.099 0-16.502 7.403-16.502 16.5.001 9.099 7.403 16.502 16.502 16.502zm0-26.776h102.601c5.667 0 10.276 4.609 10.276 10.274s-4.609 10.276-10.276 10.276h-102.601c-5.667 0-10.276-4.61-10.276-10.276s4.61-10.274 10.276-10.274z"/><path d="m35.908 281.269h102.601c9.099 0 16.502-7.403 16.502-16.502 0-9.098-7.403-16.5-16.502-16.5h-102.601c-9.099 0-16.502 7.403-16.502 16.5 0 9.099 7.403 16.502 16.502 16.502zm0-26.776h102.601c5.667 0 10.276 4.609 10.276 10.274s-4.609 10.276-10.276 10.276h-102.601c-5.667 0-10.276-4.61-10.276-10.276s4.609-10.274 10.276-10.274z"/><path d="m69.148 354.943c-9.099 0-16.502 7.403-16.502 16.502 0 9.098 7.403 16.5 16.502 16.5h102.601c9.099 0 16.502-7.403 16.502-16.5 0-9.099-7.403-16.502-16.502-16.502zm112.877 16.502c0 5.665-4.609 10.274-10.276 10.274h-102.601c-5.667 0-10.276-4.609-10.276-10.274s4.609-10.276 10.276-10.276h102.601c5.667 0 10.276 4.61 10.276 10.276z"/></g></g><g id="Layer_1"/></svg>