<?xml version="1.0" encoding="utf-8"?>
<!-- Generator: Adobe Illustrator 25.4.1, SVG Export Plug-In . SVG Version: 6.00 Build 0)  -->
<svg version="1.1" id="Layer_1" xmlns="http://www.w3.org/2000/svg" xmlns:xlink="http://www.w3.org/1999/xlink" x="0px" y="0px"
	 viewBox="0 0 1531.3 1531.3" style="enable-background:new 0 0 1531.3 1531.3;" xml:space="preserve">
<style type="text/css">
	.st0{fill:none;}
	.st1{fill:#001F3F;}
</style>
<g>
	<path class="st0" d="M696.8,738.7c30.7,10.3,62.9,15.8,95.3,16.2c175.5,0,317.8-142.3,317.8-317.8S967.6,119.3,792.1,119.3
		c-32.4,0.4-64.6,5.9-95.3,16.2C863.3,187,956.6,363.7,905.2,530.3C874.4,629.9,796.4,707.9,696.8,738.7z"/>
	<path class="st0" d="M820,793.3c-41.9,7.4-81.1,28.4-123.2,34.4l213.9,167.6c147.1-108.1,257.4-10.8,257.4-10.8
		C1179.9,968.6,983,764.6,820,793.3z"/>
</g>
<path class="st1" d="M1168,984.5c21.5-13,42.3-21.4,60.6-26.8c-69.4-82.1-162-145-270-178c189.5-92,268.5-320.1,176.5-509.6
	C1043.2,80.7,815.1,1.7,625.6,93.7S357.1,413.8,449,603.2c37.4,77,99.6,139.2,176.5,176.5c-240.7,73.5-405.2,295.5-405.5,547.1v95.3
	c0,17.6,14.2,31.8,31.8,31.8s31.8-14.2,31.8-31.8v-95.3c0-280.8,227.6-508.5,508.5-508.5C941,818.5,1075,882.5,1168,984.5z
	 M474.3,437.1c0-175.5,142.3-317.8,317.8-317.8s317.8,142.3,317.8,317.8S967.6,754.9,792.1,754.9
	C616.7,754.7,474.5,612.5,474.3,437.1z"/>
<path class="st0" d="M1192.9,1107.2c55.8-32.3,162.3,141.4-20.2,345.8l231.4-151.8l9.4-199.6l-184.9-57.3L1192.9,1107.2z"/>
<path class="st1" d="M1172.8,1524.2h-2.1c-11.6-0.5-22.7-4.9-31.4-12.5l-0.5-0.4c-5.7-5.1-111.8-99.3-169.4-148.6
	c-52.5-45-80.2-103.9-80.2-170.4c0-27.7,4.9-53.5,14.6-76.8c13.1-31.3,34.4-57.1,63.5-76.4c36.5-24.3,85-33.1,129.6-23.5
	c20.7,4.5,48.5,14.6,75.7,37.5c27.3-23,55.1-33.1,75.7-37.5c44.7-9.6,93.2-0.8,129.7,23.6c29,19.4,50.4,45.1,63.5,76.4
	c9.7,23.2,14.6,49.1,14.6,76.8c0,66.5-27.7,125.4-80.2,170.4c-23.4,20-70.8,61.3-164.2,144c-4,3.5-5.2,4.6-5.7,5
	C1197,1519.7,1185.1,1524.2,1172.8,1524.2z M1060.5,1077.6c-20.4,0-40.4,5.7-56.5,16.3c-32.3,21.5-48.7,54.6-48.7,98.3
	c0,46.6,19.8,88.2,57.1,120.3c48,41.2,130.9,114.4,160.3,140.5c90.6-80.3,137.2-120.7,160.4-140.6c37.4-32,57.1-73.6,57.1-120.3
	c0-43.7-16.4-76.7-48.7-98.3c-22-14.7-51.6-19.9-79.2-13.9c-16.9,3.6-41.7,13.6-64.1,40.8l-25.5,31l-25.5-31
	c-22.3-27.1-47.2-37.2-64.1-40.8C1075.7,1078.4,1068,1077.6,1060.5,1077.6z"/>
</svg>
