<?xml version="1.0" encoding="utf-8"?>
<!-- Generator: Adobe Illustrator 28.1.0, SVG Export Plug-In . SVG Version: 6.00 Build 0)  -->
<svg version="1.1" id="Layer_1" xmlns="http://www.w3.org/2000/svg" xmlns:xlink="http://www.w3.org/1999/xlink" x="0px" y="0px"
	 viewBox="0 0 1050 1050" style="enable-background:new 0 0 1050 1050;" xml:space="preserve">
<style type="text/css">
	.st0{fill:none;}
	.st1{fill:none;stroke:#001F3F;stroke-width:70;stroke-miterlimit:10;}
</style>
<path class="st0" d="M547,233c0,0,347,63.5-22,691.3l394.8-323.8L981.2,378L920,206l-133-70l-191,11L547,233z"/>
<path id="solid" class="st1" d="M524.9,950c-0.4,0-1,0-1.4,0c-7.4-0.3-14.5-3.1-20.1-8c-2-1.8-202.4-179.8-310-272.1
	C111.6,599.7,68.3,508.1,68.3,405c0-69.4,20-165.5,115.5-229.2c53.3-35.5,124.4-48.3,190.3-34.2c42.2,9.1,99.8,33.2,150.6,95
	c50.8-61.8,108.4-86,150.6-95c65.9-14.1,137-1.4,190.3,34.2c95.5,63.7,115.5,159.7,115.5,229.2c0,103.1-43.3,194.7-125.1,264.9
	C748.4,762.1,548.1,940.2,546,941.9C540.2,947.1,532.7,950,524.9,950z"/>
</svg>
