<svg id="Layer_2_00000086672488511558940100000008806473049093212323_" enable-background="new 0 0 512 512" viewBox="0 0 512 512" xmlns="http://www.w3.org/2000/svg"><g fill="rgb(0,0,0)"><path d="m429.6 228.5c-11.7-13.8-27.5-18.5-52.6-20.1v-40.7c0-75.4-54.3-136.7-121-136.7s-121 61.3-121 136.7v40.7c-25 1.6-40.9 6.3-52.6 20.1-17.4 20.6-17.4 52.4-17.4 115.8s0 95.2 17.4 115.8c17.7 20.9 44.8 20.9 98.9 20.9h149.4c54.1 0 81.2 0 98.9-20.9 17.4-20.6 17.4-52.4 17.4-115.8s0-95.2-17.4-115.8zm-286-60.8c0-70.6 50.4-128.1 112.4-128.1s112.4 57.5 112.4 128.1v40.3c-10.9-.4-23.4-.4-37.7-.4h-149.4c-14.4 0-26.8 0-37.7.4zm279.5 286.8c-15.1 17.9-40.9 17.9-92.4 17.9h-149.4c-51.4 0-77.2 0-92.4-17.9-15.4-18.2-15.4-49-15.4-110.3s0-92.1 15.4-110.3c15.1-17.9 40.9-17.9 92.4-17.9h149.4c51.4 0 77.2 0 92.4 17.9 15.4 18.2 15.4 49 15.4 110.3s0 92.1-15.4 110.3z"/><path d="m135.5 312.8c-1.6-.7-3.4-.3-4.7.9l-10.2 10.3c-1.7 1.7-1.7 4.4 0 6.1s4.4 1.7 6.1 0l3-3v44.7c0 2.4 1.9 4.3 4.3 4.3s4.3-1.9 4.3-4.3v-55.1c-.1-1.7-1.2-3.3-2.8-3.9z"/><path d="m218.9 343.3c3.4-3.4 5.3-8 5.3-12.8s-1.9-9.4-5.3-12.8c-7-7-18.5-7-25.6 0-3.4 3.4-5.3 8-5.3 12.8 0 2.4 1.9 4.3 4.3 4.3s4.3-1.9 4.3-4.3c0-2.5 1-4.9 2.8-6.7 3.7-3.7 9.7-3.7 13.4 0 1.8 1.8 2.8 4.2 2.8 6.7s-1 4.9-2.8 6.7l-19.5 19.5c-3.4 3.4-5.3 8-5.3 12.8v2.4c0 2.4 1.9 4.3 4.3 4.3h27.6c2.4 0 4.3-1.9 4.3-4.3s-1.9-4.3-4.3-4.3h-23.1c.4-1.8 1.3-3.5 2.6-4.8z"/><path d="m301.2 314.9c-.7-1.5-2.2-2.5-3.9-2.5h-27.6c-2.4 0-4.3 1.9-4.3 4.3s1.9 4.3 4.3 4.3h18.4l-11.4 13.6c-1.1 1.3-1.3 3.1-.6 4.6s2.2 2.5 3.9 2.5c7.1 0 12.9 5.8 12.9 12.9s-5.8 12.9-12.9 12.9c-2.8 0-5.5-.9-7.8-2.6-1.9-1.4-4.6-1-6 .9s-1 4.6.9 6c3.8 2.8 8.2 4.3 12.9 4.3 11.9 0 21.5-9.7 21.5-21.5 0-9.1-5.6-16.9-13.6-20l12.6-15.1c1.2-1.3 1.4-3.1.7-4.6z"/><path d="m388.5 340h-17.2l12.2-12.2c1.7-1.7 1.7-4.4 0-6.1s-4.4-1.7-6.1 0l-12.2 12.2v-17.2c0-2.4-1.9-4.3-4.3-4.3s-4.3 1.9-4.3 4.3v17.2l-12.2-12.2c-1.7-1.7-4.4-1.7-6.1 0s-1.7 4.4 0 6.1l12.2 12.2h-17.2c-2.4 0-4.3 1.9-4.3 4.3s1.9 4.3 4.3 4.3h17.2l-12.2 12.2c-1.7 1.7-1.7 4.4 0 6.1.8.8 1.9 1.3 3 1.3s2.2-.4 3-1.3l12.2-12.2v17.2c0 2.4 1.9 4.3 4.3 4.3s4.3-1.9 4.3-4.3v-17.2l12.2 12.2c.8.8 1.9 1.3 3 1.3s2.2-.4 3-1.3c1.7-1.7 1.7-4.4 0-6.1l-12.2-12.2h17.2c2.4 0 4.3-1.9 4.3-4.3.2-2.4-1.8-4.3-4.1-4.3z"/></g></svg>