<svg id="Layer_1" viewBox="0 0 64 64" xmlns="http://www.w3.org/2000/svg"><path d="m59.01 43.48-7.28-7.29v-33.19c0-.55-.45-1-1-1h-46.85c-.56 0-1 .45-1 1v44.29c0 .55.44 1 1 1h30.78l2.72 2.71-2.86-.83c-1.19-.33-2.48.01-3.35.89-.53.53-.88 1.21-1 1.93-.25 1.55.58 3.09 2.02 3.75l10.28 4.57c.87.38 1.77.61 2.7.67l2.46.02c1.24 0 2.33-.24 3.25-.7.68-.35 1.3-.8 1.83-1.33l6.3-6.3c2.81-2.81 2.81-7.38 0-10.19zm-35.48-39.48h7.54v11.17h-7.54zm-18.65 42.29v-42.29h16.65v12.17c0 .55.45 1 1 1h9.54c.56 0 1-.45 1-1v-12.17h16.66v30.31c-.17-.11-.34-.21-.52-.27-1.23-.51-2.65-.22-3.6.73-.43.43-.73.97-.87 1.54-.32-.1-.65-.15-.99-.15-.89.01-1.73.35-2.35.98-.47.46-.77 1.03-.91 1.66-.83-.22-1.72-.11-2.47.33-.66.4-1.16.98-1.43 1.67l-5.28-5.29c-1.26-1.26-3.45-1.26-4.71 0-1.3 1.3-1.3 3.42 0 4.72l6.06 6.06zm52.72 5.96-6.3 6.31c-.39.38-.83.7-1.32.95-.64.33-1.43.49-2.35.49h-1.88l-.47-.02c-.68-.04-1.35-.21-2-.5l-10.27-4.56c-.61-.28-.97-.95-.86-1.62.04-.3.2-.59.43-.82.28-.29.65-.44 1.03-.44.12 0 .25.02.37.05l6.6 1.94c.43.13.9-.05 1.14-.45.23-.39.17-.89-.16-1.22l-5.77-5.77q-.01-.01-.02-.02l-7.76-7.76c-.52-.52-.52-1.36 0-1.88.51-.51 1.38-.51 1.89 0l7.43 7.43.01.01 3.39 3.38c.19.2.45.3.7.3.26 0 .51-.1.71-.3.39-.39.39-1.02 0-1.41l-3.39-3.39h-.01c-.28-.29-.42-.69-.37-1.1.03-.24.16-.69.67-1 .49-.29 1.19-.17 1.64.29l.99.98c.01.01.02.02.03.02l2.32 2.32c.19.2.45.29.71.29.25 0 .51-.09.7-.29.39-.39.39-1.02 0-1.41l-2.34-2.35h-.01l-.28-.28c-.24-.25-.38-.58-.38-.93s.14-.69.39-.94.58-.39.94-.39c.35 0 .68.14.93.38l.28.29c.03.03.06.05.09.08l.56.55v.01l1.7 1.7c.2.19.45.29.71.29.25 0 .51-.1.71-.29.39-.39.39-1.02 0-1.42l-1.7-1.69v-.01c-.14-.13-.24-.28-.3-.43-.19-.5-.08-1.06.3-1.44.37-.38.93-.49 1.44-.29.14.06.29.16.42.29l8.71 8.71c2.03 2.03 2.03 5.33 0 7.36z"/></svg>