<svg xmlns="http://www.w3.org/2000/svg" width="224" height="29" fill="none" viewBox="0 0 224 29"><path fill="#FDFDFD" stroke="#D7D7D7" stroke-width="0.481771" d="M216.548 1.445h-26.903c-3.439 0-6.227 2.728-6.227 6.092v14.371c0 3.364 2.788 6.092 6.227 6.092h26.903c3.439 0 6.227-2.728 6.227-6.092V7.537c0-3.364-2.788-6.092-6.227-6.092Z"/><path fill="#1B79BE" fill-rule="evenodd" d="M201.495 22.867h2.866c4.473 0 8.037-3.492 8.177-7.805v-.069c-.07-4.382-3.704-7.942-8.177-7.874h-3.215c-4.263.137-7.618 3.697-7.478 7.943 0 4.245 3.494 7.737 7.827 7.805m-6.429-7.873c0-3.56 3.004-6.505 6.639-6.505 3.634 0 6.639 2.944 6.639 6.505s-3.005 6.504-6.639 6.504-6.639-2.944-6.639-6.504m7.687 4.382V10.68c2.446.616 3.984 3.013 3.355 5.409-.419 1.643-1.677 2.876-3.355 3.287m-5.381-5.478c-.629 2.396.838 4.861 3.284 5.478V10.68c-1.607.41-2.866 1.643-3.284 3.218" clip-rule="evenodd"/><path fill="#fff" stroke="#D7D7D7" stroke-width="0.481771" d="M80.377 1.001H53.473c-3.44 0-6.227 2.727-6.227 6.091v14.372c0 3.364 2.788 6.091 6.227 6.091h26.903c3.44 0 6.227-2.727 6.227-6.091V7.092c0-3.364-2.787-6.091-6.227-6.091Z"/><path fill="#172B85" fill-rule="evenodd" d="M59.293 18.906h-2.354l-1.766-6.588c-.084-.303-.261-.571-.523-.697a7.8 7.8 0 0 0-2.158-.698v-.254h3.792c.524 0 .916.382.982.824l.916 4.752 2.353-5.576h2.288zm4.839 0h-2.224l1.831-8.236h2.223zm4.705-5.956c.066-.443.458-.697.916-.697a4.2 4.2 0 0 1 2.158.38l.393-1.773a5.7 5.7 0 0 0-2.027-.381c-2.158 0-3.728 1.14-3.728 2.724 0 1.204 1.112 1.837 1.897 2.218.85.38 1.177.633 1.111 1.013 0 .57-.654.824-1.307.824-.785 0-1.57-.19-2.289-.508l-.392 1.775c.785.316 1.634.444 2.419.444 2.42.062 3.923-1.078 3.923-2.788 0-2.155-3.074-2.281-3.074-3.23m10.856 5.956-1.765-8.236h-1.896c-.393 0-.785.253-.916.633l-3.269 7.603h2.289l.457-1.203h2.812l.261 1.203zm-3.335-6.02.653 3.105h-1.83z" clip-rule="evenodd"/><path fill="#fff" stroke="#D7D7D7" stroke-width="0.481771" d="M125.771 1H98.867c-3.439 0-6.226 2.727-6.226 6.091v14.372c0 3.364 2.787 6.091 6.226 6.091h26.904c3.439 0 6.227-2.727 6.227-6.091V7.09c0-3.364-2.788-6.091-6.227-6.091Z"/><path fill="#ED0006" fill-rule="evenodd" d="M117.427 21.916c4.18 0 7.567-3.357 7.567-7.498 0-4.14-3.387-7.497-7.567-7.497a7.58 7.58 0 0 0-4.911 1.793 7.58 7.58 0 0 0-4.906-1.788c-4.179 0-7.567 3.357-7.567 7.497 0 4.141 3.388 7.498 7.567 7.498a7.58 7.58 0 0 0 4.912-1.794 7.58 7.58 0 0 0 4.905 1.789" clip-rule="evenodd"/><path fill="#FF5E00" fill-rule="evenodd" d="M112.529 20.12a7.452 7.452 0 0 0 .002-11.414 7.452 7.452 0 0 0-.002 11.413" clip-rule="evenodd"/><path fill="#F9A000" fill-rule="evenodd" d="M112.52 20.125a7.452 7.452 0 0 0 0-11.413 7.58 7.58 0 0 1 4.908-1.791c4.179 0 7.568 3.357 7.568 7.497 0 4.141-3.389 7.498-7.568 7.498a7.58 7.58 0 0 1-4.908-1.791" clip-rule="evenodd"/><path fill="#FDFDFD" stroke="#D7D7D7" stroke-width="0.481771" d="M171.162 1.443h-26.904c-3.439 0-6.227 2.728-6.227 6.092v14.371c0 3.364 2.788 6.092 6.227 6.092h26.904c3.439 0 6.226-2.728 6.226-6.092V7.535c0-3.364-2.787-6.092-6.226-6.092Z"/><path fill="#2B70C8" d="M155.041 18.343c.109.14.215.27.314.404a.15.15 0 0 0 .134.068q.929-.003 1.856 0c.078 0 .104-.027.102-.101-.004-.18.002-.361-.001-.54-.003-.07.023-.09.093-.09.197 0 .394 0 .592-.017.106-.009.211-.05.325-.079v.674c0 .155-.023.153.156.153.368 0 .733-.002 1.101.002.08 0 .112-.024.109-.105-.005-.116-.002-.233-.002-.373.118.14.223.26.321.386a.22.22 0 0 0 .192.092q3.237-.005 6.474 0c.311 0 .608-.04.881-.22.003.032.006.055.006.078q0 3.036.002 6.07c0 .084-.027.1-.106.1h-20.106c-.084 0-.109-.021-.109-.106V14.81c0-.078.02-.106.103-.105.249.005.496 0 .746.004.063 0 .098-.02.121-.08.041-.115.092-.226.135-.34.018-.05.047-.066.102-.064q.195.004.389 0c.063-.002.09.023.111.076.043.115.093.226.137.34.018.048.049.071.102.066q.032-.002.068 0h7.382c.151 0 .151 0 .151-.148v-.291a.1.1 0 0 1 .007-.032c.084.102.175.19.24.293.094.146.216.186.387.183.539-.012 1.079-.005 1.619-.005.222 0 .222 0 .222-.213v-.108l.059.035c.243.171.512.266.81.273.434.008.869.008 1.304.015.062.001.091-.025.112-.079a5 5 0 0 1 .142-.345.12.12 0 0 1 .085-.057q.207-.01.415 0c.03.002.071.032.085.058q.08.17.145.345c.021.054.051.076.112.076q.93-.003 1.857 0c.074 0 .098-.027.097-.098-.006-.14-.002-.281-.002-.446.107.163.203.306.293.453.041.066.089.093.172.093q.588-.006 1.177 0c.081 0 .107-.025.107-.105q-.003-1.476 0-2.952c0-.073-.016-.102-.098-.1-.404.005-.809.002-1.212.002l-.092.003v.506l-.017.005q-.147-.22-.29-.443c-.034-.053-.068-.075-.134-.075q-.614.006-1.228 0c-.077 0-.095.024-.095.095.003.27.001.537-.01.812l-.114-.258q-.127-.285-.25-.572c-.021-.053-.048-.077-.111-.075-.797.002-1.594-.003-2.391.005a1.47 1.47 0 0 0-.836.276l-.091.067c0-.092-.005-.17.003-.248.004-.077-.022-.098-.101-.098q-1.047.003-2.094.001-2.533.002-5.068-.001c-.093 0-.132.028-.159.113-.06.186-.13.369-.202.575-.063-.176-.121-.33-.175-.485-.071-.2-.071-.2-.288-.2q-.678.002-1.356-.002c-.082 0-.1.027-.099.1q.008.401-.01.807l-.315-.722c-.078-.181-.078-.183-.274-.183-.343 0-.684.003-1.026-.002-.084-.001-.124.022-.156.1-.219.507-.445 1.018-.666 1.529-.007.013-.016.026-.034.061V5.042c0-.13 0-.13.132-.13h20.054c.13 0 .13 0 .13.13v10.495c0 .125 0 .125-.128.125l-12.028-.002c-.085 0-.14.02-.19.091-.088.125-.188.242-.291.373-.09-.115-.183-.218-.257-.333-.068-.103-.15-.133-.273-.131-1.031.005-2.064.003-3.094.003-.118 0-.118 0-.118.118v2.92c0 .116 0 .116.114.116l3.153.001a.18.18 0 0 0 .155-.078c.098-.131.198-.257.304-.397"/><path fill="#2B70C8" d="M150.863 12.591v.095c0 .502-.002 1.003.002 1.505 0 .082-.017.113-.107.108-.136-.008-.271-.003-.407-.002-.051.002-.07-.016-.07-.068q.004-1.101 0-2.203c0-.047.017-.065.065-.065h.83c.064 0 .075.038.091.08l.474 1.322c.009.025.02.048.039.095.022-.05.035-.08.045-.11q.236-.654.465-1.307c.021-.06.049-.082.113-.082q.387.005.772 0c.076-.002.095.025.095.097q-.003 1.077 0 2.153c0 .07-.022.092-.091.088a5 5 0 0 0-.399 0c-.076.004-.095-.023-.095-.094q.004-.762.002-1.522l-.005-.093q-.013-.004-.024-.004l-.034.087q-.279.765-.554 1.532c-.026.071-.058.101-.14.096a2 2 0 0 0-.321 0c-.068.003-.101-.018-.122-.081-.183-.514-.372-1.027-.558-1.54l-.036-.09zm14.487.797V13.3c0-.416.003-.832-.001-1.247 0-.067.017-.094.089-.092q.208.006.416 0c.06-.002.078.02.078.076q-.003 1.093 0 2.186c0 .053-.015.075-.073.073-.195-.003-.39.002-.584-.003-.036-.002-.083-.035-.103-.067q-.425-.645-.845-1.292a.5.5 0 0 0-.104-.121l-.005.09q-.002.652.001 1.305c0 .067-.017.093-.089.091a7 7 0 0 0-.432 0c-.061.002-.077-.021-.077-.078q.003-1.088 0-2.177c0-.061.019-.083.084-.081q.3.004.601 0c.06-.002.092.021.122.068q.415.636.834 1.27.032.047.067.094zm-4.961 4.172.769.846c-.243 0-.472.001-.699-.004-.027 0-.058-.031-.078-.055a40 40 0 0 1-.588-.687c-.053-.063-.107-.1-.193-.088-.04.005-.079.002-.13.002l-.004.092c0 .22-.004.437.001.657.002.066-.021.086-.088.084a6 6 0 0 0-.407 0c-.08.004-.107-.018-.105-.101.004-.6.001-1.203.001-1.803 0-.12.003-.238-.001-.358-.002-.053.017-.073.073-.073.454.002.908-.005 1.363.004a.71.71 0 0 1 .707.698c.012.383-.175.639-.553.755zm-.923-.486h.681c.161 0 .268-.09.276-.232.009-.131-.102-.254-.252-.26-.218-.008-.435-.003-.651 0-.019 0-.053.03-.053.044-.004.145-.001.291-.001.447m-1.978-3.629c.258.288.508.562.771.852-.156 0-.295-.015-.429.003-.222.032-.367-.053-.496-.226-.146-.2-.319-.38-.483-.567-.04-.049-.216-.082-.264-.043-.017.013-.023.048-.023.073q-.005.336 0 .673c.002.068-.021.092-.092.09a5 5 0 0 0-.398 0c-.085.005-.099-.03-.097-.101q.003-.544.002-1.09.001-.523-.002-1.048c0-.073.017-.101.099-.101.431.005.863-.002 1.296.005.424.008.707.293.739.657a.72.72 0 0 1-.525.79c-.027.01-.054.02-.098.033m-.533-.48h.305c.156-.005.265-.105.265-.245 0-.138-.11-.248-.262-.251-.211-.003-.422 0-.633-.002-.053 0-.068.02-.068.07q.005.178 0 .356c-.002.053.017.073.073.072q.159-.002.32 0m-3.27.161q.002-.536-.001-1.073c0-.066.017-.091.09-.091q.881.003 1.762 0c.066 0 .09.02.087.086a4 4 0 0 0 0 .341c.002.062-.018.082-.084.082-.389-.002-.779 0-1.169-.004-.078 0-.108.022-.102.099a2 2 0 0 1 0 .216c-.003.065.023.085.088.085.377-.004.752.001 1.128-.004.081-.001.111.02.105.102-.007.096-.001.194-.001.29 0 .112 0 .112-.118.112q-.55.002-1.101-.001c-.082-.002-.105.026-.101.101a1.3 1.3 0 0 1 0 .216c-.004.073.019.102.101.1.385-.005.767 0 1.152-.003.085-.002.107.026.102.104a4 4 0 0 0 0 .35c.002.051-.018.068-.07.066h-1.796c-.069 0-.072-.033-.072-.083zm-1.359 4.762h.385q.437.002.874-.002c.062 0 .085.018.082.082a7 7 0 0 0 0 .366c.003.053-.014.073-.072.073a317 317 0 0 0-1.797 0c-.053 0-.068-.02-.068-.069q.003-1.097 0-2.195c0-.05.015-.07.068-.07q.903.003 1.805 0c.047 0 .064.019.064.065-.001.12-.004.238.003.358.003.068-.024.084-.088.083l-1.154-.002c-.074 0-.108.017-.102.097q.01.113 0 .224c-.004.072.024.09.094.09q.542-.002 1.085-.002c.129 0 .129 0 .129.125 0 .087-.005.173.002.258.007.081-.017.11-.107.108-.368-.005-.734 0-1.102-.003-.075 0-.107.015-.102.095.007.103.001.204.001.319m9.55.001h.108q.572.001 1.144-.002c.065 0 .092.015.088.083a6 6 0 0 0 0 .366c.003.055-.02.071-.074.071h-1.788c-.061 0-.077-.023-.077-.078q.004-1.09 0-2.178c0-.057.017-.079.077-.079q.893.003 1.788 0c.056 0 .075.019.073.073a5 5 0 0 0 0 .35c.004.066-.022.085-.089.085-.384-.004-.767.001-1.152-.004-.083-.001-.11.024-.103.103a1 1 0 0 1 0 .2c-.009.085.02.11.106.11.337-.005.673-.002 1.009-.002.192 0 .192 0 .192.188 0 .07-.006.14.001.208.006.071-.017.096-.093.095-.361-.004-.724-.002-1.085-.002-.147 0-.127-.013-.129.131q.004.134.004.281m-14.493-3.589c.104-.238.198-.46.293-.679q.346-.785.685-1.57c.028-.063.058-.09.13-.088q.301.008.603 0c.068-.002.099.023.125.082q.433 1 .869 1.997c.037.08.07.161.112.256h-.45c-.217 0-.217 0-.297-.196-.024-.058-.054-.117-.071-.178-.026-.085-.071-.113-.165-.112-.301.007-.603.004-.906.002-.061 0-.091.018-.111.075-.042.115-.091.226-.135.34-.018.05-.047.072-.105.07-.187-.003-.373 0-.577 0m1.741-.988-.329-.797-.027.002c-.106.263-.215.524-.325.795zm11.591.99c.101-.235.196-.45.29-.665l.694-1.595c.025-.055.053-.075.113-.075q.314.004.626 0c.051 0 .082.013.104.063l.964 2.214c.007.015.01.03.019.06h-.385c-.09-.002-.199.024-.264-.017-.063-.042-.081-.151-.115-.233-.097-.233-.095-.233-.35-.233q-.39.002-.78-.001c-.052 0-.081.015-.099.065-.044.116-.095.23-.139.347-.019.05-.046.073-.105.072-.184-.005-.37-.002-.573-.002m1.74-.988c-.113-.276-.221-.537-.33-.798l-.027.005-.326.793zm5.238 2.765c-.076.166-.143.321-.217.472-.01.02-.056.03-.087.032q-.47.003-.94.002-.179.002-.226.138a.19.19 0 0 0 .128.25.4.4 0 0 0 .133.018c.201.003.402 0 .603.003.423.006.677.3.655.717a.713.713 0 0 1-.688.687q-.101.009-.202.013l-1.068.002c-.064 0-.091-.014-.088-.084a4 4 0 0 0 0-.357c-.001-.063.02-.08.083-.08l1.144.002c.147 0 .231-.072.232-.193 0-.125-.088-.201-.235-.203-.195 0-.39.005-.585-.002-.224-.008-.43-.066-.572-.251-.327-.422-.074-1.056.459-1.146q.103-.017.21-.018h1.161q.036-.002.1-.002m-2.193 0c-.076.168-.141.318-.214.464-.011.022-.058.038-.089.038-.317.004-.632 0-.949.002-.156.002-.243.095-.226.236.012.105.104.17.243.172.208.001.418-.004.627.005.507.02.713.372.643.79q-.092.564-.679.61c-.288.021-.58.013-.871.017-.132.001-.267-.004-.399.001-.064.002-.082-.021-.081-.081q.004-.179 0-.358c-.001-.061.02-.081.083-.081.379.001.756-.002 1.136.003.129.002.23-.065.237-.193.007-.12-.091-.204-.234-.206-.195-.002-.39.005-.584-.002-.187-.006-.367-.043-.506-.176-.217-.208-.251-.462-.174-.735.078-.28.286-.43.566-.486a1 1 0 0 1 .202-.018h1.161c.031-.002.061-.002.108-.002m-8.472 1.564c0 .232-.003.451.001.67.002.076-.02.1-.099.097a6 6 0 0 0-.416 0c-.059.002-.084-.013-.084-.078v-2.177c0-.063.021-.08.082-.08.446.002.892-.001 1.338.002a.737.737 0 0 1 .739.717c.024.45-.249.753-.624.823a1.5 1.5 0 0 1-.242.025q-.337.003-.695.002m0-.523.083.005h.61c.165 0 .275-.102.282-.258a.27.27 0 0 0-.259-.285c-.221-.008-.442-.003-.662 0-.018 0-.053.029-.053.046-.003.163-.001.324-.001.492m-3.274 1.288.504-.62q.195-.24.394-.48c.042-.05.044-.082.002-.134q-.424-.517-.846-1.038l-.043-.056q.048-.006.08-.007.28.002.56-.002c.066-.001.11.02.149.072q.225.292.453.58c.017.022.035.04.061.067.126-.162.263-.305.362-.47.124-.202.281-.284.519-.249.123.019.251.004.399.004l-.293.357a88 88 0 0 1-.601.73c-.039.047-.041.079-.001.127q.423.517.845 1.04c.017.02.033.042.06.077-.177 0-.338-.013-.496.004-.179.02-.291-.044-.389-.188-.125-.186-.275-.358-.421-.546-.025.027-.047.045-.064.069q-.234.3-.467.602c-.031.041-.064.061-.118.06zm6.925-4.627c-.082.175-.156.333-.231.489-.009.016-.043.028-.063.028-.522-.02-.977-.253-1.074-.91-.044-.299-.03-.596.114-.873.182-.347.487-.515.869-.543.245-.017.492-.004.736-.007.061-.002.087.017.085.08a7 7 0 0 0 0 .366c.002.064-.025.08-.085.078-.169-.004-.338.003-.508-.002-.505-.013-.679.351-.641.74a1 1 0 0 0 .051.218c.073.198.27.333.489.338zm-1.7-.639q-.002.536.001 1.071c0 .064-.013.09-.084.087a6 6 0 0 0-.416 0c-.069.003-.085-.023-.085-.087v-2.158c0-.067.016-.095.089-.092q.204.008.407 0c.072-.002.089.025.089.092q-.003.543-.001 1.087"/><path fill="#000" stroke="#D7D7D7" stroke-width="0.481771" d="M34.13 1.165H7.227C3.787 1.165 1 3.892 1 7.256v14.372c0 3.364 2.788 6.091 6.227 6.091H34.13c3.44 0 6.227-2.727 6.227-6.091V7.256c0-3.364-2.788-6.091-6.227-6.091Z"/><g fill="#fff" clip-path="url(#a)"><path d="M6.906 13.657c.011-.129.018-.259.034-.387.102-.774.415-1.43 1.077-1.883q.546-.374 1.213-.371c.255.001.493.077.729.166q.241.092.486.182t.492 0q.346-.132.695-.255a2 2 0 0 1 .791-.127c.682.043 1.258.295 1.672.862l.025.035.005.014c-.656.45-1.034 1.055-.98 1.873.053.814.494 1.37 1.218 1.732q-.041.125-.088.25a5.6 5.6 0 0 1-1.05 1.705 1.3 1.3 0 0 1-.663.43c-.285.071-.557.019-.824-.09-.165-.067-.329-.142-.5-.187-.392-.106-.775-.057-1.15.097-.168.07-.34.14-.517.188-.375.102-.7-.016-.986-.263-.261-.225-.462-.502-.658-.782a5.7 5.7 0 0 1-.919-2.162 4.5 4.5 0 0 1-.093-.773c-.001-.027-.007-.053-.009-.08zm5.55-4.887a1.8 1.8 0 0 1-.066.675c-.19.63-.565 1.097-1.186 1.346a1.26 1.26 0 0 1-.598.09c0-.1-.01-.2 0-.297.06-.52.291-.955.678-1.305.3-.27.654-.44 1.056-.498.01 0 .02-.006.03-.01zm4.337.642h.063q1.56-.002 3.123 0c.562.003 1.091.131 1.568.437.536.344.89.828 1.066 1.437.197.685.184 1.37-.085 2.032-.34.838-.973 1.345-1.844 1.563-.25.063-.505.088-.762.088h-1.815v2.881h-1.313zm1.311 4.453.048.003h1.469c.23 0 .458-.025.679-.09.51-.15.863-.47 1.016-.987.114-.384.114-.774.012-1.16a1.36 1.36 0 0 0-.725-.905 1.85 1.85 0 0 0-.813-.199c-.546-.01-1.091-.007-1.637-.008q-.022 0-.049.005zm8.959.335c-.012-.24-.004-.479-.039-.71a.84.84 0 0 0-.583-.7c-.43-.155-.865-.161-1.288.024a.97.97 0 0 0-.586.694c-.003.013-.024.031-.037.032l-1.133.001-.019-.005q.01-.255.094-.497c.167-.47.491-.805.922-1.043a2.8 2.8 0 0 1 1.155-.33 3.4 3.4 0 0 1 1.445.174c.393.143.73.367.98.71.203.283.308.602.333.947q.009.135.007.27v4.088h-1.216v-1.004l-.014-.006q-.015.015-.027.033c-.312.54-.791.852-1.388.986a2.42 2.42 0 0 1-1.596-.164c-.561-.265-.899-.708-.985-1.325-.056-.394-.008-.775.203-1.123.173-.286.425-.482.722-.626a2.8 2.8 0 0 1 .926-.267c.371-.041.744-.063 1.118-.089.313-.022.627-.038.941-.057zm-.01.89c-.043.003-.077.008-.111.01-.507.033-1.013.063-1.519.1a1.7 1.7 0 0 0-.618.164c-.418.204-.523.588-.418.943.08.267.276.432.53.516.54.175 1.064.124 1.548-.18a1.22 1.22 0 0 0 .552-.774c.06-.256.027-.515.036-.779m1.775-3.36h1.311c.046 0 .062.015.076.058l1.529 4.93.015.001q.013-.023.023-.047l.47-1.518 1.042-3.37c.013-.042.03-.055.075-.055q.606.003 1.214.002h.062l-.042.12-2.277 6.382c-.13.364-.284.716-.5 1.04a1.86 1.86 0 0 1-1.378.846c-.32.04-.638.039-.957.009-.028-.003-.053-.004-.053-.045q0-.48.002-.959l.005-.017.13.009c.19.01.38.018.567-.021a.9.9 0 0 0 .62-.459c.105-.182.156-.386.23-.581a.48.48 0 0 0-.007-.356q-1.071-2.952-2.137-5.903-.01-.028-.02-.065"/></g><defs><clipPath id="a"><path fill="#fff" d="M6.91 8.772h27.735v11.38H6.91z"/></clipPath></defs></svg>