<svg xmlns="http://www.w3.org/2000/svg" width="224" height="29" fill="none" viewBox="0 0 224 29"><path fill="#FDFDFD" stroke="#D7D7D7" stroke-width="0.481771" d="M216.548 1.445h-26.903c-3.439 0-6.227 2.728-6.227 6.092v14.371c0 3.364 2.788 6.092 6.227 6.092h26.903c3.439 0 6.227-2.728 6.227-6.092V7.537c0-3.364-2.788-6.092-6.227-6.092Z"/><path fill="#1B79BE" fill-rule="evenodd" d="M201.495 22.867h2.866c4.473 0 8.037-3.492 8.177-7.805v-.069c-.07-4.382-3.704-7.942-8.177-7.874h-3.215c-4.263.137-7.618 3.697-7.478 7.943 0 4.245 3.494 7.737 7.827 7.805m-6.429-7.873c0-3.56 3.004-6.505 6.639-6.505 3.634 0 6.639 2.944 6.639 6.505s-3.005 6.504-6.639 6.504-6.639-2.944-6.639-6.504m7.687 4.382V10.68c2.446.616 3.984 3.013 3.355 5.409-.419 1.643-1.677 2.876-3.355 3.287m-5.381-5.478c-.629 2.396.838 4.861 3.284 5.478V10.68c-1.607.41-2.866 1.643-3.284 3.218" clip-rule="evenodd"/><path fill="#fff" stroke="#D7D7D7" stroke-width="0.481771" d="M80.377 1.001H53.473c-3.44 0-6.227 2.727-6.227 6.091v14.372c0 3.364 2.788 6.091 6.227 6.091h26.903c3.44 0 6.227-2.727 6.227-6.091V7.092c0-3.364-2.787-6.091-6.227-6.091Z"/><path fill="#172B85" fill-rule="evenodd" d="M59.293 18.906h-2.354l-1.766-6.588c-.084-.303-.261-.571-.523-.697a7.8 7.8 0 0 0-2.158-.698v-.254h3.792c.524 0 .916.382.982.824l.916 4.752 2.353-5.576h2.288zm4.839 0h-2.224l1.831-8.236h2.223zm4.705-5.956c.066-.443.458-.697.916-.697a4.2 4.2 0 0 1 2.158.38l.393-1.773a5.7 5.7 0 0 0-2.027-.381c-2.158 0-3.728 1.14-3.728 2.724 0 1.204 1.112 1.837 1.897 2.218.85.38 1.177.633 1.111 1.013 0 .57-.654.824-1.307.824-.785 0-1.57-.19-2.289-.508l-.392 1.775c.785.316 1.634.444 2.419.444 2.42.062 3.923-1.078 3.923-2.788 0-2.155-3.074-2.281-3.074-3.23m10.856 5.956-1.765-8.236h-1.896c-.393 0-.785.253-.916.633l-3.269 7.603h2.289l.457-1.203h2.812l.261 1.203zm-3.335-6.02.653 3.105h-1.83z" clip-rule="evenodd"/><path fill="#fff" stroke="#D7D7D7" stroke-width="0.481771" d="M125.771 1H98.867c-3.439 0-6.226 2.727-6.226 6.091v14.372c0 3.364 2.787 6.091 6.226 6.091h26.904c3.439 0 6.227-2.727 6.227-6.091V7.09c0-3.364-2.788-6.091-6.227-6.091Z"/><path fill="#ED0006" fill-rule="evenodd" d="M117.427 21.916c4.18 0 7.567-3.357 7.567-7.498 0-4.14-3.387-7.497-7.567-7.497a7.58 7.58 0 0 0-4.911 1.793 7.58 7.58 0 0 0-4.906-1.788c-4.179 0-7.567 3.357-7.567 7.497 0 4.141 3.388 7.498 7.567 7.498a7.58 7.58 0 0 0 4.912-1.794 7.58 7.58 0 0 0 4.905 1.789" clip-rule="evenodd"/><path fill="#FF5E00" fill-rule="evenodd" d="M112.529 20.12a7.452 7.452 0 0 0 .002-11.414 7.452 7.452 0 0 0-.002 11.413" clip-rule="evenodd"/><path fill="#F9A000" fill-rule="evenodd" d="M112.52 20.125a7.452 7.452 0 0 0 0-11.413 7.58 7.58 0 0 1 4.908-1.791c4.179 0 7.568 3.357 7.568 7.497 0 4.141-3.389 7.498-7.568 7.498a7.58 7.58 0 0 1-4.908-1.791" clip-rule="evenodd"/><path fill="#FDFDFD" stroke="#D7D7D7" stroke-width="0.481771" d="M171.162 1.443h-26.904c-3.439 0-6.227 2.728-6.227 6.092v14.371c0 3.364 2.788 6.092 6.227 6.092h26.904c3.439 0 6.226-2.728 6.226-6.092V7.535c0-3.364-2.787-6.092-6.226-6.092Z"/><path fill="#2B70C8" d="M155.041 18.343c.109.14.215.27.314.404a.15.15 0 0 0 .134.068q.929-.003 1.856 0c.078 0 .104-.027.102-.101-.004-.18.002-.361-.001-.54-.003-.07.023-.09.093-.09.197 0 .394 0 .592-.017.106-.009.211-.05.325-.079v.674c0 .155-.023.153.156.153.368 0 .733-.002 1.101.002.08 0 .112-.024.109-.105-.005-.116-.002-.233-.002-.373.118.14.223.26.321.386a.22.22 0 0 0 .192.092q3.237-.005 6.474 0c.311 0 .608-.04.881-.22.003.032.006.055.006.078q0 3.036.002 6.07c0 .084-.027.1-.106.1h-20.106c-.084 0-.109-.021-.109-.106V14.81c0-.078.02-.106.103-.105.249.005.496 0 .746.004.063 0 .098-.02.121-.08.041-.115.092-.226.135-.34.018-.05.047-.066.102-.064q.195.004.389 0c.063-.002.09.023.111.076.043.115.093.226.137.34.018.048.049.071.102.066q.032-.002.068 0h7.382c.151 0 .151 0 .151-.148v-.291a.1.1 0 0 1 .007-.032c.084.102.175.19.24.293.094.146.216.186.387.183.539-.012 1.079-.005 1.619-.005.222 0 .222 0 .222-.213v-.108l.059.035c.243.171.512.266.81.273.434.008.869.008 1.304.015.062.001.091-.025.112-.079a5 5 0 0 1 .142-.345.12.12 0 0 1 .085-.057q.207-.01.415 0c.03.002.071.032.085.058q.08.17.145.345c.021.054.051.076.112.076q.93-.003 1.857 0c.074 0 .098-.027.097-.098-.006-.14-.002-.281-.002-.446.107.163.203.306.293.453.041.066.089.093.172.093q.588-.006 1.177 0c.081 0 .107-.025.107-.105q-.003-1.476 0-2.952c0-.073-.016-.102-.098-.1-.404.005-.809.002-1.212.002l-.092.003v.506l-.017.005q-.147-.22-.29-.443c-.034-.053-.068-.075-.134-.075q-.614.006-1.228 0c-.077 0-.095.024-.095.095.003.27.001.537-.01.812l-.114-.258q-.127-.285-.25-.572c-.021-.053-.048-.077-.111-.075-.797.002-1.594-.003-2.391.005a1.47 1.47 0 0 0-.836.276l-.091.067c0-.092-.005-.17.003-.248.004-.077-.022-.098-.101-.098q-1.047.003-2.094.001-2.533.002-5.068-.001c-.093 0-.132.028-.159.113-.06.186-.13.369-.202.575-.063-.176-.121-.33-.175-.485-.071-.2-.071-.2-.288-.2q-.678.002-1.356-.002c-.082 0-.1.027-.099.1q.008.401-.01.807l-.315-.722c-.078-.181-.078-.183-.274-.183-.343 0-.684.003-1.026-.002-.084-.001-.124.022-.156.1-.219.507-.445 1.018-.666 1.529-.007.013-.016.026-.034.061V5.042c0-.13 0-.13.132-.13h20.054c.13 0 .13 0 .13.13v10.495c0 .125 0 .125-.128.125l-12.028-.002c-.085 0-.14.02-.19.091-.088.125-.188.242-.291.373-.09-.115-.183-.218-.257-.333-.068-.103-.15-.133-.273-.131-1.031.005-2.064.003-3.094.003-.118 0-.118 0-.118.118v2.92c0 .116 0 .116.114.116l3.153.001a.18.18 0 0 0 .155-.078c.098-.131.198-.257.304-.397"/><defs><clipPath id="a"><path fill="#fff" d="M6.91 8.772h27.735v11.38H6.91z"/></clipPath></defs></svg>