<?xml version="1.0" encoding="utf-8"?>
<!-- Generator: Adobe Illustrator 25.4.1, SVG Export Plug-In . SVG Version: 6.00 Build 0)  -->
<svg version="1.1" id="Layer_1" xmlns="http://www.w3.org/2000/svg" xmlns:xlink="http://www.w3.org/1999/xlink" x="0px" y="0px"
	 viewBox="0 0 1200 1200" style="enable-background:new 0 0 1200 1200;" xml:space="preserve">
<style type="text/css">
	.st0{fill:none;}
	.st1{fill:#001F3F;}
</style>
<g id="budicon-spaceship">
	<path class="st0" d="M892.2,53.2C871.3,57.5,850.9,63.4,831,71c26.3,71.7,50.4,176.6,27.6,225.8L569.7,919.1
		c-14.6-1.9-31.7-4.6-49.3-7.8l-7.9,17.1c47,14.9,95.4,25.3,144.4,31.2l288.8-622.2C976.3,271.3,922.5,105,892.2,53.2z"/>
	<polygon class="st0" points="339.8,501.7 226.9,745.1 314,785.5 467.4,455 	"/>
	<polygon class="st0" points="859.5,637 706.1,967.5 793.3,1008 906.2,764.6 	"/>
	<path class="st1" d="M994.6,866.3L888.1,575.4l101.1-217.8c48-103.5-47.5-339.8-74.7-352.4C887.3-7.5,645.1,72.1,597.1,175.6
		L496,393.4L205.1,499.9c-17.9,6.6-32.5,20-40.6,37.3l-58.2,125.4c-16.8,36.1-1.1,78.9,35,95.7l152.5,70.8c0,0,26.8,26.6,63.2,57.2
		l-65.9,90c-15.7,21.4-11,51.5,10.4,67.1c2.6,1.9,5.3,3.5,8.2,4.8l198.7,92.2c24.1,11.2,52.6,0.7,63.8-23.3c1.3-2.9,2.4-5.9,3.1-8.9
		l26.2-108.4c46.8,8,84.5,11.3,84.5,11.3l152.5,70.8c36.1,16.8,78.9,1.1,95.7-35l58.2-125.4C1000.3,904.1,1001.2,884.3,994.6,866.3z
		 M161.5,714.8c-12-5.6-17.2-19.9-11.7-31.9L208,557.4c2.7-5.8,7.5-10.3,13.5-12.4l245.8-90L314,785.5L161.5,714.8z M640.7,195.8
		c30.7-66,192.4-132.3,251.5-142.6c30.3,51.7,84.1,218.1,53.5,284.1L656.9,959.6c-49-5.8-97.3-16.3-144.4-31.2L643.1,647
		c5.6-12,0.4-26.3-11.7-31.9c-12-5.6-26.3-0.4-31.9,11.7L468.9,908.2c-41.7-26.3-80.9-56.5-117-90.2L640.7,195.8z M528.5,1096.9
		l-198.7-92.2l64.7-88.3c23.4,18.3,48.5,34.1,75.1,47.3c27.2,11.8,55.6,20.8,84.6,26.8L528.5,1096.9z M890.5,1026.6
		c-5.6,12-19.9,17.2-31.9,11.7l-152.5-70.8L859.5,637l90,245.8c2.2,6,1.9,12.6-0.8,18.4L890.5,1026.6z"/>
	<path class="st1" d="M774.6,1105.2c-12-5.6-26.3-0.4-31.9,11.7l-20.2,43.6c-5.6,12-0.4,26.3,11.7,31.9c12,5.6,26.3,0.4,31.9-11.7
		l20.2-43.6C791.9,1125.1,786.6,1110.8,774.6,1105.2z"/>
	<path class="st1" d="M164.6,822.1c-12-5.6-26.3-0.4-31.9,11.7l-20.2,43.6c-5.6,12-0.4,26.3,11.7,31.9s26.3,0.4,31.9-11.7l20.2-43.6
		C181.9,842,176.7,827.7,164.6,822.1z"/>
	<path class="st1" d="M772.9,310.1c24.7,18.3,43.8,43.2,55,71.8c5.4,12.1,19.6,17.6,31.7,12.2c12-5.3,17.5-19.3,12.4-31.3
		c-16-39.3-43.4-72.8-78.8-96.2c-40.8-12.9-84.7-12.1-125,2.1c-12.6,4.2-19.4,17.8-15.2,30.4s17.8,19.4,30.4,15.2
		C712.1,304,743.3,302.6,772.9,310.1z"/>
</g>
</svg>
