<svg id="Layer_1" viewBox="0 0 64 64" xmlns="http://www.w3.org/2000/svg" data-name="Layer 1"><path d="m49.241 2h-40.813c-3.35 0-6.075 2.725-6.075 6.075v41.536c0 3.35 2.725 6.076 6.075 6.076h.254v.243c0 3.348 2.723 6.071 6.071 6.071h40.814c3.353 0 6.08-2.723 6.08-6.071v-41.537c0-3.353-2.727-6.08-6.08-6.08h-.251v-.238c0-3.35-2.725-6.075-6.075-6.075zm-40.813 2h40.813c2.247 0 4.075 1.828 4.075 4.075v4.097h-48.963v-4.097c0-2.247 1.828-4.075 4.075-4.075zm-4.075 45.611v-35.439h48.963v35.438c0 2.248-1.828 4.076-4.075 4.076h-40.813c-2.247 0-4.075-1.828-4.075-4.076zm51.214-39.298c2.25 0 4.08 1.83 4.08 4.08v41.536c0 2.245-1.83 4.071-4.08 4.071h-40.814c-2.245 0-4.071-1.826-4.071-4.071v-.243h38.559c3.35 0 6.075-2.726 6.075-6.076v-39.297z"/><path d="m10.943 9.269h4.664c.552 0 1-.448 1-1s-.448-1-1-1h-4.664c-.552 0-1 .448-1 1s.448 1 1 1z"/><path d="m19.889 9.269h4.664c.552 0 1-.448 1-1s-.448-1-1-1h-4.664c-.552 0-1 .448-1 1s.448 1 1 1z"/><path d="m28.834 9.269h4.664c.552 0 1-.448 1-1s-.448-1-1-1h-4.664c-.552 0-1 .448-1 1s.448 1 1 1z"/><path d="m28.829 19.019c-8.521 0-15.453 6.932-15.453 15.453 0 4.987 2.432 9.694 6.499 12.585.748.541 1.544 1.015 2.374 1.411 2.067.967 4.281 1.457 6.581 1.457 2.275 0 4.555-.504 6.6-1.46.863-.412 1.667-.891 2.374-1.415.002-.001.004-.003.005-.004.003-.002.006-.004.009-.006 0 0 .001-.002.002-.002 4.055-2.901 6.475-7.596 6.475-12.565 0-8.521-6.938-15.453-15.465-15.453zm0 28.906c-2.005 0-3.934-.427-5.726-1.265-.325-.155-.644-.329-.958-.513-.094-.055-.186-.115-.28-.172-.132-.081-.26-.17-.389-.256.241-3.839 3.415-6.89 7.303-6.921.02 0 .039.003.059.003.019 0 .038-.003.058-.003 3.885.04 7.065 3.087 7.31 6.913-.126.085-.249.171-.38.253-.092.057-.182.116-.277.171-.314.184-.638.36-.974.521-1.774.83-3.761 1.269-5.745 1.269zm-4.504-15.637c0-2.489 2.024-4.513 4.513-4.513s4.513 2.024 4.513 4.513-2.006 4.49-4.478 4.509c-.015 0-.029-.002-.044-.002-.011 0-.021.002-.032.002-2.469-.023-4.471-2.034-4.471-4.508zm13.698 11.986c-.624-2.993-2.683-5.467-5.426-6.677 1.663-1.181 2.754-3.118 2.754-5.309 0-3.591-2.922-6.513-6.513-6.513s-6.513 2.922-6.513 6.513c0 2.187 1.087 4.121 2.746 5.303-2.73 1.207-4.782 3.684-5.409 6.705-2.706-2.527-4.286-6.082-4.286-9.824 0-7.418 6.035-13.453 13.453-13.453s13.465 6.035 13.465 13.453c0 3.725-1.571 7.268-4.271 9.802z"/></svg>