<svg id="Layer_31" viewBox="0 0 50 50" xmlns="http://www.w3.org/2000/svg" data-name="Layer 31"><path d="m19.70343145 37.38964844c.00097656.09667969-.07714844.17480469-.17382812.17578125-.26367188.00195312-.52832031.00292969-.79296875.00292969-.40527344 0-.80859375-.00195312-1.20996094-.00683594-.09667969-.00097656-.17382812-.08007812-.17285156-.17675781s.078125-.16699219.17675781-.17285156c.66210938.0078125 1.33203125.00878906 1.99707031.00390625h.00097656c.09570312 0 .17382812.07714844.17480469.17382812zm-5.16796875-.25195313c-.67089844-.02636719-1.3359375-.05859375-1.99511719-.09667969-.10351562-.00292969-.17773438.06835938-.18457031.16503906-.00585938.09570312.06835938.17871094.16503906.18457031.66113281.03808594 1.328125.0703125 2.00097656.09667969h.00683594c.09375 0 .17089844-.07324219.17480469-.16796875.00390625-.09667969-.07128906-.17773438-.16796875-.18164062zm-4.98046875-.31835937c-.66894531-.06054688-1.33203125-.12792969-1.98535156-.203125-.08203125-.01171875-.18261719.05761719-.19335938.15429688-.01074219.09570312.05761719.18261719.15429688.19335938.65527344.07519531 1.3203125.14257812 1.99316406.203125.00488281.00097656.01074219.00097656.015625.00097656.08984375 0 .16601562-.06835938.17382812-.15917969.00878906-.09570312-.06152344-.18164062-.15820312-.18945312zm14.97070312.24414062h-.00976562c-.65917969.03613281-1.32324219.06542969-1.99316406.08886719-.09667969.00292969-.17285156.08398438-.16894531.18066406.00292969.09472656.08105469.16894531.17480469.16894531h.00585938c.671875-.0234375 1.33984375-.05273438 2.00097656-.08886719.09667969-.00488281.16992188-.08789062.16503906-.18457031-.00488281-.09277344-.08203125-.16503906-.17480469-.16503906zm23.97460938-.32910156c0 6.28222656-5.11035156 11.39257812-11.39257812 11.39257812-4.35333252 0-8.14031982-2.45611572-10.05761719-6.05352783-2.69812012.20593262-5.48614502.32012939-8.31347656.32012939-4.44238281 0-8.71875-.25195312-12.70996094-.74902344-1.39550781-.17285156-2.63085938-.88671875-3.47851562-2.00878906-.8515625-1.12695312-1.20214844-2.51757812-.98632812-3.91601562l2.65332031-17.22753906c.39160156-2.54101562 2.54101562-4.38574219 5.11230469-4.38574219h2.49414062v-5.31835938c0-3.8125 3.10253906-6.91503906 6.91503906-6.91503906s6.91503906 3.10253906 6.91503906 6.91503906v5.31835938h2.49414062c2.57128906 0 4.72070312 1.84472656 5.11230469 4.38574219l1.10845947 7.19689941c.87982178-.21850586 1.79467773-.34729004 2.7411499-.34729004 6.28222656 0 11.39257812 5.11035156 11.39257812 11.39257812zm-34.67871094-22.62792969h9.83007812v-5.31835938c0-2.70996094-2.20507812-4.91503906-4.91503906-4.91503906s-4.91503906 2.20507812-4.91503906 4.91503906zm12.40679932 26.01275635c-.33349609-1.06970215-.51324463-2.20666504-.51324463-3.38482666 0-4.62005615 2.76855469-8.59790039 6.72979736-10.3838501l-1.16339111-7.5536499c-.24023438-1.55859375-1.55859375-2.69042969-3.13574219-2.69042969h-2.49414062v2.99707031c0 .55273438-.44726562 1-1 1s-1-.44726562-1-1v-2.99707031h-9.83007812v2.99707031c0 .55273438-.44726562 1-1 1s-1-.44726562-1-1v-2.99707031h-2.49414062c-1.57714844 0-2.89550781 1.13183594-3.13574219 2.69042969l-2.65332031 17.22753906c-.1328125.859375.08300781 1.71386719.60546875 2.40527344.51953125.6875 1.27539062 1.12402344 2.12890625 1.23046875 3.91015625.48632812 8.10351562.73339844 12.46386719.73339844 2.54638672 0 5.05029297-.10388184 7.49176025-.27435303zm20.27191162-3.38482666c0-5.17871094-4.21386719-9.39257812-9.39257812-9.39257812s-9.39257812 4.21386719-9.39257812 9.39257812 4.21386719 9.39257812 9.39257812 9.39257812 9.39257812-4.21386719 9.39257812-9.39257812zm-2.91113282-2.83984375c.08691406.796875-.14160156 1.57910156-.64257812 2.20410156l-3.34765625 4.41308594c-.89257812 1.11132812-2.1953125 1.73632812-3.59277344 1.73632812h-.00097656c-1.39746094 0-2.70214844-.625-3.57714844-1.71582031l-1.16210938-1.46191406c-1.03222656-1.28613281-.82519531-3.17773438.46484375-4.21386719 1.2890625-1.03515625 3.18164062-.828125 4.21777344.46191406l.03808594.04785156 2.26171875-3c.52050781-.6484375 1.23535156-1.04003906 2.03222656-1.12792969.79394531-.08398438 1.57910156.140625 2.20410156.64257812s1.01660156 1.21679688 1.10449219 2.01367188zm-2.35644531-.453125c-.20898438-.16796875-.46777344-.2421875-.734375-.21484375-.265625.02929688-.50390625.16015625-.67089844.36816406l-3.0234375 4.00976562c-.18652344.24707031-.47753906.39355469-.78710938.39746094-.2734375.01855469-.60351562-.13671875-.79589844-.37988281l-.83691406-1.05761719c-.19433594-.24121094-.48242188-.36816406-.77441406-.36816406-.22070312 0-.44238281.07226562-.62695312.22070312-.20800781.16699219-.33886719.40527344-.36816406.67089844s.046875.52636719.21484375.734375l1.16113281 1.46191406c.49023438.61132812 1.2265625.96386719 2.01464844.96386719s1.5234375-.35253906 2.01757812-.96679688l3.34667969-4.41308594c.36230469-.45117188.29296875-1.08203125-.13671875-1.42675781z"/></svg>