<?xml version="1.0" encoding="utf-8"?>
<svg id="svg2" viewBox="80.622 0 301.225 62.552" xmlns="http://www.w3.org/2000/svg">
  <desc>Source: openclipart.org/detail/209545</desc>
  <rect id="reviewsio-logo" x="263.387" y="331.736" width="284.668" height="45.61" style="fill: none;"/>
  <g id="reviewsio-logo1" transform="matrix(0.377461, 0, 0, 0.377461, 89.632782, 9.24666)" style="">
    <g>
      <g>
        <path d="M95.146,23.399l-5.024,2.52c9.794,7.909 14.582,18.125 15.472,30.487c-0.744,23.861 -12.002,39.197 -31.341,45.774c-22.343,6.732 -36.501,1.285 -50.201,-12.674l-0.863,5.366l5.57,5.804c19.375,20.191 51.498,20.854 71.689,1.479c20.191,-19.376 20.854,-51.498 1.478,-71.69l-6.78,-7.066Z" style="fill: rgb(255, 255, 255);"/>
        <path d="M20.433,91.882l3.366,-2.94c-13.985,-19.818 -14.571,-48.832 4.568,-64.805c14.187,-11.84 42.337,-17.977 64.858,1.852l1.681,-2.957l-5.488,-5.72c-19.376,-20.191 -51.498,-20.854 -71.69,-1.478c-20.191,19.375 -20.853,51.498 -1.478,71.689l4.183,4.359Z" style="fill: rgb(255, 255, 255);"/>
      </g>
      <path d="M8.333,59.138c0,28.054 22.746,50.8 50.8,50.8c28.059,-0 50.804,-22.746 50.804,-50.8c0,-28.059 -22.745,-50.805 -50.804,-50.805c-28.054,0 -50.8,22.746 -50.8,50.805Zm35.359,9.188c0.534,-1.69 -0.06,-3.532 -1.48,-4.593c-3.76,-2.808 -11.173,-8.344 -16.154,-12.064c-0.719,-0.537 -1.013,-1.474 -0.73,-2.326c0.283,-0.852 1.079,-1.426 1.977,-1.426l19.306,-0c1.797,-0 3.391,-1.152 3.956,-2.857c1.522,-4.597 4.547,-13.733 6.553,-19.789c0.282,-0.851 1.077,-1.427 1.974,-1.428c0.897,-0.001 1.695,0.572 1.979,1.422c2.027,6.061 5.088,15.212 6.625,19.807c0.569,1.699 2.16,2.845 3.952,2.845c4.567,-0 13.365,-0 19.355,-0c0.895,-0 1.691,0.572 1.975,1.422c0.284,0.85 -0.006,1.786 -0.722,2.325c-4.966,3.741 -12.383,9.327 -16.135,12.153c-1.412,1.063 -1.999,2.902 -1.466,4.586c1.451,4.582 4.361,13.771 6.327,19.978c0.274,0.867 -0.046,1.813 -0.791,2.335c-0.745,0.522 -1.742,0.501 -2.464,-0.053c-4.989,-3.83 -12.278,-9.425 -16.095,-12.354c-1.501,-1.152 -3.589,-1.149 -5.086,0.009c-3.78,2.922 -10.97,8.482 -15.917,12.307c-0.72,0.557 -1.719,0.582 -2.466,0.06c-0.747,-0.521 -1.069,-1.467 -0.795,-2.335c1.966,-6.225 4.872,-15.43 6.322,-20.024Z" style="fill-rule: nonzero; fill: rgb(255, 255, 255);"/>
    </g>
  </g>
</svg>