<svg id="Layer_1" viewBox="0 0 64 64" xmlns="http://www.w3.org/2000/svg"><path d="m53.469 31.754c.072-.839.119-1.688.119-2.539v-22.337c0-.285-.121-.556-.333-.745-.213-.19-.493-.282-.777-.249-17.255 1.916-23.977-3.588-24.038-3.641-.373-.323-.93-.321-1.305-.003-.065.055-6.784 5.561-24.042 3.644-.282-.033-.564.059-.777.249-.212.189-.333.46-.333.745v22.337c0 12.558 7.705 23.806 19.174 27.99 2.021.737 4.188 1.333 6.438 1.768.063.012.127.018.19.018s.127-.006.19-.018c2.251-.436 4.417-1.031 6.447-1.771.026-.01.05-.02.075-.03 2.917 2.975 6.973 4.828 11.459 4.828 8.855 0 16.061-7.205 16.061-16.06 0-6.143-3.47-11.485-8.549-14.186zm-25.684 25.218c-2.079-.412-4.078-.965-5.943-1.646-10.683-3.897-17.859-14.39-17.859-26.111v-21.228c14.614 1.401 21.729-2.359 23.803-3.747 2.074 1.388 9.193 5.149 23.803 3.747v21.229c0 .562-.021 1.124-.055 1.683-1.74-.647-3.613-1.019-5.576-1.019-8.855 0-16.06 7.205-16.06 16.061 0 3.595 1.202 6.907 3.205 9.586-1.689.582-3.464 1.079-5.318 1.446zm18.172 3.028c-7.753 0-14.06-6.307-14.06-14.06s6.307-14.061 14.06-14.061 14.061 6.308 14.061 14.061-6.308 14.06-14.061 14.06z"/><path d="m45.174 41.23h.772c.005 0 .009.003.015.003s.009-.003.015-.003h.767c1.022 0 1.854.832 1.854 1.855 0 .552.447 1 1 1s1-.448 1-1c0-2.051-1.614-3.717-3.636-3.833v-1.614c0-.552-.447-1-1-1s-1 .448-1 1v1.613c-2.024.114-3.641 1.781-3.641 3.833 0 2.125 1.729 3.855 3.854 3.855h1.567c1.022 0 1.854.833 1.854 1.855s-.832 1.855-1.854 1.855h-1.567c-1.022 0-1.854-.832-1.854-1.855 0-.552-.447-1-1-1s-1 .448-1 1c0 2.052 1.617 3.72 3.641 3.833v1.618c0 .552.447 1 1 1s1-.448 1-1v-1.618c2.022-.116 3.636-1.782 3.636-3.833 0-2.126-1.729-3.855-3.854-3.855h-1.567c-1.022 0-1.854-.832-1.854-1.855s.832-1.855 1.854-1.855z"/></svg>