<svg enable-background="new 0 0 512 512" viewBox="0 0 512 512" xmlns="http://www.w3.org/2000/svg"><g id="_x30_6_motivation"><g><path d="m486.698 263.589c3.715-4.706 5.504-10.726 4.941-16.773-1.131-11.761-11.552-20.968-23.796-21.136 8.717-38.499 13.657-80.383 14.775-125.846.46-18.621-8.053-36.553-22.766-47.972-14.544-11.29-34.366-15.156-52.126-10.151-47.201 13.339-90.543 6.927-134.215-17.999-17.758-10.142-40.641-10.14-58.394-.002-43.152 24.629-86.471 31.501-134.312 17.997-17.735-5.005-37.57-1.136-52.112 10.16-14.713 11.423-23.224 29.353-22.761 47.967 4.607 187.475 73.362 314.868 210.19 389.456 8.624 4.702 18.372 7.186 28.19 7.186 9.82 0 19.571-2.487 28.203-7.193 50.426-27.504 91.485-62.283 123.595-104.516h31.649c12.916 0 23.423-10.508 23.423-23.423 0-5.245-1.732-10.091-4.656-13.999h5.82c12.916 0 23.423-10.508 23.423-23.423 0-5.245-1.732-10.094-4.656-14.002h11.363c6.583 0 12.9-2.793 17.335-7.66 4.428-4.86 6.616-11.425 5.999-18.02-.981-10.228-8.988-18.546-19.112-20.651zm-218.694 217.423c-14.505 7.906-32.882 7.908-47.374.007-133.614-72.838-200.761-197.599-205.281-381.417-.386-15.635 6.763-30.697 19.122-40.294 12.159-9.44 28.4-12.869 43.776-8.534 51.031 14.405 96.912 6.586 141.542-18.883 14.915-8.513 34.14-8.516 49.051.002 45.107 25.745 91.013 33.138 141.447 18.885 14.915-4.207 31.569-.959 43.788 8.527 12.362 9.592 19.511 24.656 19.127 40.298-1.123 45.63-6.145 87.584-15.043 126.045-47.544-.081-43.655.153-46.301-.158 9.888-38.211 15.448-80.443 16.593-126.988.037-1.495-.637-2.919-1.82-3.837-1.187-.918-2.737-1.217-4.17-.812-60.076 16.978-119.229 9.21-175.811-23.09-1.445-.823-3.225-.823-4.67 0-56.579 32.293-115.753 40.066-175.891 23.09-1.44-.409-2.986-.108-4.168.812-1.182.918-1.856 2.342-1.819 3.837 4.088 166.433 63.607 278.699 181.959 343.214.702.384 1.479.575 2.254.575.777 0 1.553-.191 2.257-.575 32.936-17.966 61.203-39.727 85.084-65.243 7.624 5.421 16.595 8.293 25.974 8.293h26.36c-30.646 38.636-69.151 70.7-115.986 96.246zm84.854-341.121c-7.127.066-12.883 5.917-12.773 13.07l.518 33.772c.163 10.666-3.356 20.642-9.912 28.086-12.776 14.501-29.268 14.061-34.681 13.917-.237-.006-.386.002-.593.001-5.407-10.341-16.209-17.423-28.647-17.423h-41.043c-2.602 0-4.711 2.109-4.711 4.711v166.308c0 2.602 2.109 4.711 4.711 4.711h41.043c12.421 0 23.212-7.062 28.627-17.38 9.177.471 17.867-1.331 27.565 2.194-22.28 23.455-48.412 43.586-78.647 60.347-112.159-62.139-169.318-169.384-174.613-327.625 59.703 15.262 118.403 7.087 174.612-24.314 56.209 31.403 114.879 39.571 174.534 24.316-1.431 42.769-6.717 81.75-15.786 117.184-4.149-3.311-6.664-8.301-6.664-13.64v-17.654c-.001-26.458-15.065-50.951-43.54-50.581zm-63.174 103.822v110.932c0 12.67-10.28 22.977-22.915 22.977h-36.333v-156.887h36.333c12.635 0 22.915 10.308 22.915 22.978zm203.163 52.202c-2.652 2.912-6.431 4.582-10.37 4.582-30.011 0-56.853 0-86.982 0-2.602 0-4.711 2.109-4.711 4.711s2.109 4.711 4.711 4.711h56.851c7.72 0 14.002 6.282 14.002 14.002s-6.282 14.002-14.002 14.002c-18.096 0-32.961 0-50.376 0-2.602 0-4.711 2.109-4.711 4.711s2.109 4.711 4.711 4.711h25.788c7.72 0 14.002 6.28 14.002 13.999 0 7.72-6.282 14.002-14.002 14.002h-70.13c-7.49 0-14.65-2.309-20.725-6.687-13.766-9.856-25.952-8.392-37.782-8.306v-122.186c15.92-.322 28.907-6.073 38.64-17.118 0 0 0 0 0-.002 8.106-9.206 12.46-21.443 12.263-34.456l-.518-33.772c-.029-1.914 1.522-3.487 3.437-3.506 22.692-.467 34.032 19.963 34.032 41.158v17.654c0 8.704 4.235 16.914 11.331 21.961 11.705 8.324 20.42 3.684 69.203 4.985 7.591 0 14.071 5.555 14.749 12.635.375 4.007-.899 7.837-3.584 10.786-2.652 2.912-6.432 4.582-10.367 4.582h-59.271c-2.602 0-4.711 2.109-4.711 4.711s2.109 4.711 4.711 4.711h72.642c7.591 0 14.073 5.553 14.752 12.633.376 4.007-.899 7.837-3.583 10.786z"/></g></g><g id="Layer_1"/></svg>