<svg id="a" height="512" viewBox="0 0 512 512" width="512" xmlns="http://www.w3.org/2000/svg" data-name="line"><g fill="rgb(0,0,0)"><path d="m428.2 123.93h-106.05v-94.79c0-8.43-6.86-15.29-15.29-15.29h-101.72c-8.43 0-15.29 6.86-15.29 15.29v94.8h-106.05c-46.21-.01-83.8 37.58-83.8 83.79v206.62c0 36.41 23.34 67.45 55.83 78.99 3.06 2.98 7.23 4.82 11.83 4.82h360.54c46.21 0 83.8-37.59 83.8-83.8v-206.62c0-46.21-37.59-83.8-83.8-83.8zm-218.35-90.09h92.31v156.5h-92.31zm-126.05 444.32c-4.5 0-8.9-.48-13.14-1.37v-137.63c0-.83.67-1.5 1.5-1.5h176.55c.83 0 1.5.67 1.5 1.5v138.99h-166.41zm36.97-200.16c0-21.87 17.79-39.66 39.66-39.66s39.66 17.79 39.66 39.66-17.79 39.66-39.66 39.66-39.66-17.79-39.66-39.66zm371.23 136.36c0 35.18-28.62 63.8-63.8 63.8h-157.99v-138.99c0-11.85-9.64-21.5-21.5-21.5h-43.76c9.41-10.55 15.14-24.45 15.14-39.66 0-32.9-26.77-59.66-59.66-59.66s-59.66 26.77-59.66 59.66c0 15.22 5.73 29.11 15.14 39.66h-43.76c-11.85 0-21.5 9.64-21.5 21.5v129.69c-18.37-11.21-30.66-31.45-30.66-54.5v-206.62c0-35.18 28.62-63.8 63.8-63.8h106.05v66.42h132.31v-66.42h106.05c35.18 0 63.8 28.62 63.8 63.8z"/><path d="m433.92 240.67h-121.03c-5.52 0-10 4.48-10 10s4.48 10 10 10h121.03c5.52 0 10-4.48 10-10s-4.48-10-10-10z"/><path d="m433.92 301.04h-121.03c-5.52 0-10 4.48-10 10s4.48 10 10 10h121.03c5.52 0 10-4.48 10-10s-4.48-10-10-10z"/><path d="m433.92 361.41h-121.03c-5.52 0-10 4.48-10 10s4.48 10 10 10h121.03c5.52 0 10-4.48 10-10s-4.48-10-10-10z"/><path d="m256 107.93c15.92 0 28.88-12.95 28.88-28.88s-12.95-28.88-28.88-28.88-28.88 12.95-28.88 28.88 12.95 28.88 28.88 28.88zm0-37.75c4.9 0 8.88 3.98 8.88 8.88s-3.98 8.88-8.88 8.88-8.88-3.98-8.88-8.88 3.98-8.88 8.88-8.88z"/></g></svg>