<svg width="21" height="18" viewBox="0 0 16 18" fill="none" xmlns="http://www.w3.org/2000/svg">
    <path d="M7.89623 9C10.3885 9 12.4084 6.98555 12.4084 4.5C12.4084 2.01445 10.3885 0 7.89623 0C5.40398 0 3.3841 2.01445 3.3841 4.5C3.3841 6.98555 5.40398 9 7.89623 9ZM11.0547 10.125H10.466C9.68345 10.4836 8.81275 10.6875 7.89623 10.6875C6.9797 10.6875 6.11253 10.4836 5.32643 10.125H4.73774C2.12211 10.125 0 12.2414 0 14.85V16.3125C0 17.2441 0.757897 18 1.69205 18H14.1004C15.0346 18 15.7925 17.2441 15.7925 16.3125V14.85C15.7925 12.2414 13.6703 10.125 11.0547 10.125Z" fill="#001F3F"></path>
</svg>
