<svg id="Layer_1" enable-background="new 0 0 100 100" viewBox="0 0 100 100" xmlns="http://www.w3.org/2000/svg"><g><path d="m93.85 41.72c.2-.31.2-.72 0-1.04-3.65-5.57-8.19-10.26-13.29-13.92v-15.87c-.01-2.7-2.56-4.89-5.71-4.89h-63.15c-3.14 0-5.7 2.19-5.7 4.89v73.33c0 2.64 1.22 5.11 3.44 6.95 2.14 1.81 4.99 2.81 8.03 2.83h62.06c5.72 0 10.38-3.95 10.38-8.8v-11.22c0-1.36-1.26-2.46-2.8-2.46h-6.55v-15.88c5.1-3.66 9.63-8.35 13.29-13.92zm-76.37 50.32c-2.54-.01-4.92-.84-6.7-2.34-1.76-1.47-2.73-3.41-2.73-5.49v-73.32c0-1.61 1.64-2.93 3.65-2.93h63.16c2.01 0 3.65 1.32 3.65 2.93v14.46c-7.19-4.63-15.4-7.27-23.9-7.57-.5-.03-1.01-.05-1.53-.05s-1.03.02-1.53.05c-15.54.53-30.12 8.99-39.24 22.9-.2.31-.2.72 0 1.04 9.12 13.91 23.7 22.37 39.24 22.9.5.03 1.01.05 1.53.05s1.03-.02 1.53-.05c8.5-.29 16.71-2.93 23.9-7.57v14.46h-48.66c-1.55 0-2.8 1.1-2.8 2.46v9.92c0 1.98-.88 3.89-2.49 5.42-1.81 1.72-4.35 2.72-6.96 2.73zm13.14-50.84c0-11.86 10.07-21.51 22.45-21.51s22.45 9.65 22.45 21.51-10.07 21.51-22.45 21.51-22.45-9.65-22.45-21.51zm8.31 19.14c-9.71-3.3-18.38-9.95-24.56-19.14 6.18-9.19 14.85-15.84 24.56-19.14-6.26 4.25-10.36 11.24-10.36 19.14s4.1 14.89 10.36 19.14zm48.17 13.13c.4 0 .76.23.76.51v11.22c0 3.77-3.73 6.84-8.33 6.84h-55.24c.62-.39 1.2-.84 1.72-1.34 2-1.9 3.09-4.31 3.09-6.81v-9.92c0-.27.36-.51.76-.51h57.24zm-19.89-13.13c6.26-4.25 10.36-11.24 10.36-19.14s-4.09-14.89-10.36-19.14c9.71 3.3 18.38 9.95 24.56 19.14-6.18 9.19-14.85 15.84-24.56 19.14z"/><path d="m61.13 41.2c0-4.26-3.61-7.72-8.06-7.72s-8.06 3.46-8.06 7.72 3.61 7.72 8.06 7.72 8.06-3.46 8.06-7.72zm-14.08 0c0-3.18 2.7-5.77 6.02-5.77s6.02 2.59 6.02 5.77-2.7 5.77-6.02 5.77-6.02-2.59-6.02-5.77z"/></g></svg>